<svg xmlns="http://www.w3.org/2000/svg" viewBox="0 0 119.28 103.76"><defs><style>.cls-1,.cls-2{fill:none;stroke:#000;stroke-miterlimit:10;opacity:0.6;}.cls-1{stroke-width:13px;}.cls-2{stroke-width:12px;}</style></defs><g id="レイヤー_2" data-name="レイヤー 2"><g id="mask"><path class="cls-1" d="M2.59,31.28S17.71,29,29,26.89a102.58,102.58,0,0,0,13.56-3.61"/><path class="cls-1" d="M25.59.28s4,93.23,0,96.61-17-17.61-19-18.61,31-34,31-34"/><path class="cls-1" d="M55.59,19.28s12.26,1,8.13,7.5.87,49.5-18.13,57.5"/><path class="cls-1" d="M55.08,39.33c-.51,2.05-13.49-9-13.49-9"/><path class="cls-1" d="M37.59,56.28s1.49,14.06,20-3"/><path class="cls-1" d="M75.59,6.28s11,6,9,10-12,59-7,60,11,19,35,6c-1-20-1.32-23.87-1.32-23.87"/><path class="cls-2" d="M94.09,19.28s7.26,11.6-2.12,20.3c11.24,7.4,9.65,15.7-5.37,16.7"/></g></g></svg>