<svg xmlns="http://www.w3.org/2000/svg" xmlns:xlink="http://www.w3.org/1999/xlink" viewBox="0 0 1242 424"><defs><style>.cls-1{fill:none;}.cls-2{clip-path:url(#clip-path);}.cls-3{clip-path:url(#clip-path-2);}.cls-4{fill:#fff;}</style><clipPath id="clip-path" transform="translate(165.5 133.5)"><rect class="cls-1" width="911" height="127"/></clipPath><clipPath id="clip-path-2" transform="translate(165.5 133.5)"><rect class="cls-1" x="-160.5" y="-121.5" width="1242" height="424"/></clipPath></defs><g id="レイヤー_2" data-name="レイヤー 2"><g id="レイヤー_1-2" data-name="レイヤー 1"><g class="cls-2"><g class="cls-3"><path class="cls-4" d="M1076.5,290.5h-1242v-424h1242ZM279.81,182.14c-.2,4.54,3.37,6.3,6.44,8.17.88.53,2.63-.35,4-.59a16.87,16.87,0,0,0-2.61-2.72c-2.57-1.69-5.26-3.19-7.91-4.76l.57-8.22-7-5.11c.41,3,1.36,5.2.7,6.65s-3,1.86-4.14,2.52C273.16,179.41,276.49,180.77,279.81,182.14Zm62.1-10.93,4.14-2.22-.39-1.09-10.32,2.3c2.34,3.87,4.51,2.74,6.7.9-.63,1.31-1.33,3.78-1.86,3.75-4.8-.31-4.58,2.86-4.91,6.07-.25,2.32-1.18,4.57-1.92,7.28l6.33-1.83a38.78,38.78,0,0,1-1.75-3.52c0-.12,1.22-1,1.34-.86.87.77,2,1.57,2.29,2.59.39,1.24-.05,2.71.15,4a20.33,20.33,0,0,0,1.1,3.48,59.12,59.12,0,0,0,2.68-15.75C345.52,174.66,343.17,172.93,341.91,171.21ZM217.16,5.12c.63,5.47,1.2,10.61,1.84,15.75.74,5.8,1.63,11.59,2.25,17.4.14,1.37-.09,3.65-.91,4.09a44.93,44.93,0,0,1-11.08,4.42c-.89.19-2.3-3.63-4-4.93-2.09-1.61-5.1-4-7.07-3.48-10.71,2.68-21.23,6.15-31.81,9.35l.11,2.15c2.54.33,5.1.53,7.6,1.05,1.33.27,3.38.88,3.61,1.74.29,1.11-.66,2.81-1.52,3.91a21.07,21.07,0,0,1-3.59,3l5.21,2c-1,1.41-1.95,2.84-3,4.22-.74,1-2.22,1.9-2.21,2.83a10.76,10.76,0,0,0,1.61,4.53c.74,1.38,2.73,2.74,2.55,3.83-.31,1.82-1.61,4.55-3,4.92-6.9,1.8-13.51,5.92-22.36,2.73.48,3.25.06,6.34,1.41,7.84s4.41,1.47,6.75,1.63c1.27.09,2.6-.86,3.9-1.33l9.44-3.35c1.47,4.06,2.5,7.52,4,10.75.52,1.11,2.24,1.67,3.41,2.48.82-1.39,2.14-2.71,2.36-4.19a56.35,56.35,0,0,0,.26-8.82c0-2.82.85-4.64,3.89-5.42a89.78,89.78,0,0,0,10.53-3.65c1-.39,2.3-1.43,2.38-2.28s-1-2.21-1.88-2.68c-2.4-1.25-5-2.14-7.5-3.17l.46,1.37-6.68,5.84c-1.24-5.66-1.34-8.87,3.76-11.11,6-2.63,12.35-5.44,15.87-11.52,3-5.14,7.07-7.21,12.88-6.25.68.11,1.48-.41,2.19-.7,2.46-1,3.92-.16,4.37,2.42.75,4.27,1.36,8.58,2.21,12.83s-1,6.81-4.46,8.74a40.43,40.43,0,0,0-3.75,2.66l.59,1.35c2.14-.51,4.48-.62,6.36-1.62,3.43-1.82,4.42-.23,5.82,2.65,3.67,7.57,7.34,15.21,11.94,22.22,2.32,3.55,6.43,6.12,10.11,8.54,3.36,2.2,5.82.55,5.6-3.42a107.75,107.75,0,0,0-1.23-12c-.31-1.87-1.49-3.58-2.79-6.53a25.33,25.33,0,0,1-1.1,3.26c-1,1.75-2.11,3.46-3.18,5.18-1.52-1.18-3.45-2.08-4.49-3.59a126.36,126.36,0,0,1-8-12.88c-3.36-6.37-2.82-8.3,1.87-13.88,3-3.51,3.59-7.57,1.2-11.68-.68-1.15-2-1.9-3.09-2.83-.68,1.2-1.43,2.37-2,3.6-.92,1.87-1.75,3.78-2.61,5.67-.72-1.88-1.82-3.7-2.07-5.64-1.26-9.88-1.15-9.8,8-14,1.36-.62,2.16-2.47,3.21-3.75-1.64-.6-3.34-1.83-4.9-1.67-2.54.26-5,1.43-8,2.4a31.85,31.85,0,0,1-.8-4.62c-.13-5-.24-9.93-.12-14.89C227.72,10.59,225.67,7.67,217.16,5.12ZM505.28,74.89l-1.12-1.25c1.2-1.48,2.1-3.63,3.65-4.3,2.61-1.14,5.65-1.26,8.47-2,2.62-.65,6.19-.69,7.59-2.42,3.42-4.23,5.91-9.22,8.55-14a4.79,4.79,0,0,0-.16-3.61c-2.92-7-10-10.35-17.48-8.53-1.65.4-3.36.55-5.07.82-.76-5.07,1.2-7.37,5.43-8.11a29.43,29.43,0,0,0,6.74-1.75c1.28-.56,2.14-2.08,3.19-3.18-1.53-.81-3.1-2.36-4.56-2.27-2.73.17-5.36,1.44-8.09,2-1.57.3-3.61.65-4.79-.07-2.75-1.67-5.11-4-8.06-6.39,3.85-1.21,7.56-2.23,11.15-3.56,3.95-1.46,4.52-4.36,1.26-6.9a12.86,12.86,0,0,0-5.83-2.56c-1-.14-2.5,1.4-3.47,2.46-1.71,1.86-2.87,4.37-4.84,5.81-2.88,2.12-6.27,3.55-10.61,5.89,2.34.31,3.38.71,4.29.52,4.49-.92,6.35,2.3,8.21,5.23,1.11,1.75,1.08,3.41-1.65,4.17-7.54,2.11-14.63,6.06-22.84,5.35-.44,0-.93.53-1.63,1,9.12,7.79,17.88,2.36,26.53-.76,1,4.49.69,6.88-3.86,7.86-5.94,1.27-11.67,3.49-17.5,5.3-.12.41-.24.82-.37,1.23,1.62.72,3.29,2.1,4.85,2,2.39-.16,4.72-1.35,7.08-2.08,3.09-1,6.2-1.9,9.29-2.85l1.26,1.8-6.4,7.83h4.18c1.72,4.92-3,5.62-4.77,8.09a43.4,43.4,0,0,0-2.5,4.49A19.89,19.89,0,0,0,495.18,72c3.49.94,4.8,3.27,2.62,6.08-1.42,1.82-3.85,2.89-5.89,4.19a37.13,37.13,0,0,1-3.55,1.83l.35,1.26c1.79.12,3.7-.09,5.34.47s3.76,1.67,4.06,2.93a5.84,5.84,0,0,1-1.69,5,29.48,29.48,0,0,1-7.88,3.75c-2.15.78-4.69,1.84-6.64,1.29-1.38-.38-2.07-3.23-3.06-5-3,4.15-2.88,9.13.39,12.57,2.64,2.78,6.25,2.67,11-.55,6.89-4.7,13.77-9.43,20.55-14.29,2.57-1.84,4.87-4.06,7.29-6.1l-.73-1-16,7.56c-.93-4.33-.23-7,3.54-8.56s7.23-3.47,10.77-5.21C512.89,72.84,508.85,74.72,505.28,74.89ZM818.12,217a7,7,0,0,0,.17,2.23c3.36,7.41,6.88,14.75,10.17,22.19s7.73,10.61,15.86,9.68c6.61-.75,13.1-2.67,19.72-3.2,7.25-.59,14.58,0,21.87-.31,1.48-.06,2.91-1.54,4.37-2.37-1.34-1-2.57-2.56-4-2.78-5.35-.81-10.78-1.16-16.55-1.73.5-8.93-2-18.64,2.07-28.12,2.45-5.7.92-7.51-5.38-7.62-3.88-.07-7.76,0-12.1,0,3.14-5.26,8.37-5.81,13.24-7,2.67-.67,6.86.37,6.93-3.55,0-1.3-4.33-2.74-6.75-4-2.22-1.15-5.55-1.57-6.57-3.35-1.88-3.28-4.44-4-7.59-4.24-3.37-.26-5,1.42-3.44,4.46,1.81,3.49.42,5.4-2.46,6.58a105.89,105.89,0,0,1-10.9,3.56,39.23,39.23,0,0,1-5.19.73c4.55,6.94,9.92,9.69,16.57,7.2-.15,2.78-1.1,5.64-.12,7.47.7,1.29,4,1.44,6.16,1.59,1.06.08,2.16-1.37,3.31-1.46s3.27.5,3.35,1c.94,6.14,1.58,12.33,2.36,19l-7.27-.46,1.94-6.2L848,223.84c2.16,4.28,2.62,7-2.45,7.66-.92-5.43-1.83-10.7-2.73-16l-1.89.05c-1.13,5.18-2.61,10.32-3.18,15.56-.18,1.64,1.74,4.67,3.28,5.13,4.11,1.23,9,2.88,12.74,1.67,5.76-1.88,8.48.7,12.52,4.93-9.37,1.15-17.55,4.38-26.34,2.49-4-.85-6-3.26-6.17-7.48-.14-3.56-1.14-7.09-1.14-10.64C832.62,218.75,827.13,217.56,818.12,217Zm-76.33,30.36c4.87,3.22,9.14,6.5,13.84,8.95,2.66,1.39,4.88-1,4.11-4-.62-2.38-1.77-4.63-2.27-7-1.2-5.66-2.22-11.36-3.11-17.07-.13-.85.72-2.58,1.25-2.64a4.11,4.11,0,0,1,3.12,1.17c8.21,9.34,18.47,15.28,30.34,18.62,3.27.92,6.57,1.73,9.85,2.59l.6-1.57c-4.89-2.46-9.76-4.94-14.66-7.38-8.11-4-16.79-7.23-21-16.38-1.2-2.59-3.52-4.64-5.18-7-.94-1.35-2.58-3.69-2.17-4.22,1.38-1.77,3.41-3.82,5.45-4.14,5.44-.86,11-.85,16.53-1.27a6.73,6.73,0,0,0,3.51-1,6,6,0,0,0,2.26-3.53c.06-.63-1.88-1.9-3.07-2.14-5.38-1.09-10.75-3.38-16.31-.3-1.12.62-2.88.09-3.31.09-1.4-4.72-1.65-9.38-4-12.44s-6.79-5.35-11.49-3.11c1.32,1.73,3.06,3.16,3.63,4.95,1,3.23,2.73,7.2-1.31,9.47a76,76,0,0,1-13.1,5.64c-4.47,1.49-9.16,2.34-13.76,3.47l-.74,1.26c2.58,2.08,4.88,5,7.83,6s6.76.23,10.74.23c-2.84,12.08-10.71,19.76-15.94,29,10.28-5.38,16.43-15.31,25-23.85.81,6.84,1.49,12.47,2.15,18.11.9,7.69.9,7.69-6.81,8.13C743.47,246.05,743.24,246.35,741.79,247.36ZM523.06,102.08c5.77-.55,9.08-4.18,11.31-8.29,5.5-10.07,11.3-20.13,15.25-30.83,2.29-6.22,5.47-9.33,11.35-11.05,5.4-1.58,6.8-.78,6.7,4.84C567.44,69,562.6,79.7,557,90.22c-2.72,5.09-5,6.45-10.83,5.84-1.64-.17-3.33,0-5.54,0,6.95,9.25,14.2,9.76,20.38,3.24a38.43,38.43,0,0,0,6.85-10.82c3.35-7.56,6.27-15.33,9.07-23.12,2-5.69,1-11.06-3.55-15.24-3.35-3.07-7-5.75-12-3.05-1.64.87-3.76.85-6,1.3.52-4.89.88-9.32,1.48-13.72.66-4.8-1.87-7.63-5.73-9.57-.89-.45-2.21,0-3.34,0,.12,1,.19,2,.36,3,.56,3.36,1.66,6.73,1.58,10.07-.07,2.64-1.85,5.18-2.4,7.86-.76,3.69-1.64,6.94-6.19,7.47a17.25,17.25,0,0,0-4.39,1.34c-.89.36-2.23,1-2.29,1.66A3.14,3.14,0,0,0,535.91,59a44.61,44.61,0,0,0,6.3,1.7C537.24,75.14,531.68,89.22,523.06,102.08ZM893.67,46.14c.11-.68.22-1.35.32-2-2.35-1.58-4.53-3.52-7.08-4.67-6.4-2.91-12.44.67-18.6,1.6-3.25.49-6.41,1.55-9.82,2.4.73-9.41,4.84-13.89,13-14.78a62.71,62.71,0,0,0,7.41-.88,26.74,26.74,0,0,0,5-2.24c-1.44-1.41-2.75-3.82-4.36-4-4.24-.57-8.62-.19-13.18-.19.2-.92.71-2.81,1-4.74a24.19,24.19,0,0,0,.55-6.47c-.26-1.95-.91-4.43-2.3-5.53-4.15-3.26-8.57-2.52-12.92,1.68,4.33,1,6.41,3.37,5.54,8-.68,3.64-.43,7.47-1.3,11.05-.72,2.95-7.93,5.49-10.72,4.68.51-3.64,1.81-7.31,1.3-10.71-.61-4.11-3.64-6.73-8.58-6.56,2.88,7,1.92,12.27-3.15,18.31-2,2.36-3.18,5.28-.88,7.47,1.28,1.22,4.34.89,6.55.71,1.44-.12,2.78-1.28,4.2-1.89,3.19-1.39,6.39-2.72,9.82-4.17.45,7.61-.89,11.92-5.11,13.24-8,2.47-14.88,9.59-24.47,5.3,1.15,7,3.21,9.27,9.14,8.66,3.29-.34,6.51-2.36,9.56-4,13.06-7.07,26.65-11.4,41.78-9.24C888.67,47.39,891.21,46.47,893.67,46.14ZM42.12,54.27c-.12-2.34,0-4.18-.32-6-1.17-7.79.56-13.61,9.53-15.11,1.05-.18,1.85-1.86,2.77-2.84-1.28-.72-2.53-2-3.82-2-2.37-.07-4.77.59-8,1.06.44-4.88.78-9.16,1.2-13.44.51-5.17-2.76-8.74-7.77-7.56-1.71.4-4.14,3.31-4,4.91A60,60,0,0,0,34.69,27c1.58,4.9-1,6.49-4.92,7.38-4.61,1-9.24,2-14.62,3.18a17.72,17.72,0,0,0,3,2.64,16.84,16.84,0,0,0,13.52,1c1.16-.37,3.95.63,3.94,1-.11,6.61,1.27,14-1.3,19.64-3.56,7.74-10,14.22-15.48,21-2.3,2.85-2.43,5.18,0,7.65,4.77,4.79,9.53,9.6,14.5,14.18,2.87,2.65,5.14,2.06,6.72-1.61a19.46,19.46,0,0,0,1.71-6.6c.36-8.22.47-16.45.59-24.68.09-5.95.52-11.75,4.7-16.53.28-.32,0-1.12-.06-2ZM690.39,209l-.21-2a116.29,116.29,0,0,0-11.2-3.55c-3.39-.73-7.63-2-10.28-.7-7.77,3.93-14.56,1.85-21.15-1.88-3.63-2.06-5.12-1-6.21,2.25-1.52,4.49-2.87,9-4.32,13.54-.69,2.12-1.45,4.22-2.27,6.58,10.36-1.73,13.79-3.94,19-11.3.81-1.16,2.75-2.37,4-2.2,1.79.24,5,1.93,4.85,2.62a49,49,0,0,1-3.37,13.13c-.61,1.35-4.18,1.45-6.44,2-1.19.27-2.51,0-3.7.3a3.11,3.11,0,0,0-2,1.48c-.18.54.52,1.74,1.15,2.11,7.56,4.51,15,9.28,22.9,13.1,2.07,1,5.62-1,8.49-1.66-.61-2.31-.56-5.16-2-6.8-2.56-3-6-5.32-8.83-7.76C672.78,218.58,681,213.09,690.39,209ZM793.74,63.17c5-1,6.28.93,6.15,5.57-.06,2.44,1.62,5.08,3,7.34a29,29,0,0,0,4.81,5.64c2,2,2.12,3.7-.13,5.38-2.58,1.92-5.33,3.63-7.83,5.64a5.12,5.12,0,0,0-2,3.26,3.32,3.32,0,0,0,2.33,2.36,5.64,5.64,0,0,0,3.47-1.65c1.48-1.31,2.4-3.38,4-4.34,6.22-3.7,12.89-4,19.64-1.55,10.32,3.75,20.72,7.34,30.87,11.53,14.23,5.87,27.35,3.1,40.3-4.61A101.31,101.31,0,0,0,880.08,94c-7.86-.81-15.88-.49-23.65-1.77-10.67-1.75-21.1-5-31.77-6.7-6.64-1.07-12.14-2.7-16.49-8.39-3.35-4.38-4.17-10.18-.14-14,1.88-1.8,4.32-3.07,6-5,1.17-1.36,2.37-3.8,1.88-5.15s-3-2.25-4.8-2.55a6.11,6.11,0,0,0-4.33,1.35C802.31,55.41,798.07,59.34,793.74,63.17ZM956.88,208.62c5.86-.74,10.58-1.26,15.26-2,.82-.13,1.49-1.14,2.23-1.74-.82-.54-1.61-1.49-2.46-1.54a52.15,52.15,0,0,0-8.75.11c-8.44,1-8.57.65-10.64-8.05a17.57,17.57,0,0,1-.09-2.31c-.4-5.07-2.5-7.06-8.77-7.66.75,3.79,1.45,7.36,2.23,11.3-3.72-.12-6.27-.07-5.14-4.62,1.26-5.11-1.65-7.67-7.72-7,.36,3,.72,6.07,1.1,9.11s-.65,4.66-3.78,5.28a50.17,50.17,0,0,0-6.79,2.37c0,.4,0,.8,0,1.21,2.11.73,4.27,1.36,6.31,2.24a23,23,0,0,1,3.48,2.22c-.83,1.14-1.41,2.83-2.53,3.34-5.48,2.49-11.12,4.64-16.67,7-1.53.65-2.94,1.59-4.41,2.39.17.59.34,1.18.5,1.76,2.14-.22,4.45,0,6.39-.75,8.2-3.14,16.26-6.69,24.45-9.88,8.92-3.48,11.12-2.88,15.7,3.62,6.54,9.29,6.45,9.2-1.37,18-1.06,1.21-1.24,4-.65,5.61a5.68,5.68,0,0,0,4.16,3.07c1.15.06,2.52-2,3.6-3.29.57-.68.64-1.75,1.09-2.54.72-1.27,1.58-2.45,2.39-3.68,1.15,1.08,2.61,2,3.42,3.26,3.36,5.31,6.35,10.85,9.86,16.06,1,1.45,3.22,2,4.89,3l1.56-1.81c-3.7-5.1-6.86-10.73-11.22-15.18-6.82-7-7.9-9.65-4.83-18.81.42-1.24-.13-2.81-.23-4.23a26.28,26.28,0,0,0-4.64,1.05c-.82.33-1.34,1.41-2.43,2.64ZM125.32,69l-2.56.43c0,2.37-.08,4.74,0,7.1.21,4.74-1.3,8.45-5.8,10.66a21.68,21.68,0,0,1-19.3.49,7.12,7.12,0,0,1-3.6-4.82,194.4,194.4,0,0,1-1.37-24.1,107.35,107.35,0,0,1,6.84-36.26c.83-2.17-.69-6.12-2.42-8.16-2.12-2.5-5.58-3.94-9.44-1C91,18.17,90.76,23,90.14,28.85c-1.88,17.68-2.28,35.53-2.7,53.33-.06,2.88,2.07,6.64,4.38,8.59,10.3,8.66,22.23,8.08,34.24,4.45,3.17-1,4.71-4,4.11-7.52-.42-2.44-.87-4.89-1.51-7.28C127.63,76.58,126.44,72.78,125.32,69ZM736.15,93.8c.43,1.27.46,2,.83,2.31,4.52,4.16,9,8.41,13.78,12.2.73.58,4.16-.6,4.66-1.73a26,26,0,0,0,2.43-9.64c.12-3.8-1.21-7.62-1.3-11.45-.44-17.5-.77-35-.86-52.51,0-3.13,1.1-6.32,2-9.39,2.39-8,.29-13.46-7.26-15.73-2.61-.8-3.37.07-3,2.73a111.15,111.15,0,0,1,1.36,12.84c.42,15.8.58,31.61.93,47.42.15,6.51.73,13,.8,19.51.06,6-1.72,7.18-7.37,5.49C741,95.21,738.89,94.6,736.15,93.8ZM363.48,31c0,8.86-4.35,14.89-9.49,20.29s-11,10.55-16.47,15.8c.15.33.29.65.43,1l16.44-7.48c-.9,4.53-1.59,7.8-2.19,11.09-1.18,6.43-2.24,12.94,1.11,19,.76,1.37,2.89,3.09,4,2.86,1.56-.3,3.25-2.09,4-3.66a59.77,59.77,0,0,0,3-8.63c.71-2.26,1.31-4.55,2.1-7.31l-6.6,1.65c-.59-4.87-1-9.3-1.68-13.69-.48-3.18.81-5.28,3.29-7.08a59.65,59.65,0,0,0,7.1-5.87c2.94-2.9,3.2-6.68,2.14-10.41A10.41,10.41,0,0,0,363.48,31ZM416.2,48.15c2.78,12.16,1.8,24.17-.58,36-2,10.08-7.68,17.66-17.9,21.12a30.43,30.43,0,0,0-4.06,2.07l.35,1.28c3.73,0,7.58.58,11.18-.11,11-2.1,18.69-5.53,20.47-19.34,1.64-12.82.07-25.27-3.31-37.58C421.57,48.73,419.85,46.59,416.2,48.15Zm-357.47,43c7.22-1.08,10.64-6,12.49-11.79A204.83,204.83,0,0,0,76.9,56.5c1.54-7.7,2.44-15.54,3.7-23.31.63-3.92-1.86-6.55-4.63-7.72-2.09-.89-5.18.38-7.74,1-.29.08-.16,3.46,0,3.48,4,.53,3.28,3.58,3.27,6.08,0,4.34-.63,8.72-.26,13,.75,8.71-6.47,11.12-11.44,15.4-2.93,2.53-6,3-9.41.59-1.62,4.82.59,7.58,4,9.46s4.83-1.14,6.44-3.4c2.38-3.36,4.87-6.65,7.32-10l1.26.74A78.27,78.27,0,0,1,58.73,91.13ZM380.47,42.47c.38,2.78.31,4.26.8,5.53,2,5,8.29,7,14.21,4.51,2.13-.9,4-2.33,6.17-3.16,12.67-4.91,25.63-7,39.1-3.74a13.41,13.41,0,0,0,4.57.62c1.22-.15,2.91-.92,3.33-1.88a4,4,0,0,0-.95-3.65c-3.59-3.26-7.72-6.23-12.8-5.44C424.23,36.91,413.65,39.15,403,41,395.85,42.31,389.34,48.88,380.47,42.47ZM582.23,193.3c0-3.12.81-7.15-.16-7.64-2.57-1.29-5.92-1-8.71-1.38,0,4.93,1.44,9.8-.38,12.06-2.11,2.62-7.08,2.95-11,4.32,1.12,4.8,5.63,2,8.2,3.72-1.61,13.08-9.28,23.74-14.61,35.43,2.4-1.51,4.58-3.13,5.82-5.29,4.66-8.1,9.11-16.33,13.44-24.61,3-5.69,6.52-10.25,13.72-10.37,1.29,0,2.56-1.3,3.84-2l-.27-1.3ZM684.17,86.36l-2.68.45c.32,4.6,0,9.39,1.2,13.73.8,2.84,3.58,5.44,7.72,3.47,1.43-.67,3.31-.47,5-.53,5-.18,9.94-.11,14.87-.55,1.31-.11,3.7-2.16,3.55-2.55-1.64-4.34,1.64-6.78,3.66-9.38,3.1-4,.36-7-1.62-9.5-1.59-2-5.28-4.34-7.14-3.75-7.42,2.4-14.49,5.87-21.67,9-.11,0,0,.55,0,1.28,8.8,1.84,14.93-5.75,23.41-6.79.1,6-2.44,10.63-6,15-3.16,3.87-7.62,5.88-11.78,4.74-2.53-.68-4.18-5.15-5.89-8.11A44.34,44.34,0,0,1,684.17,86.36ZM662.9,44.09l.71,1c3.08-1.59,6.25-3,9.23-4.8,8.39-5,16.91-10.2,22.2-18.41,3-4.73,5.34-3.76,8.9-2.18a72.51,72.51,0,0,0,9,3.63c1.19.36,2.76-.53,4.16-.85-.39-1.26-.5-2.73-1.23-3.76-3.24-4.55-8-4-12.63-3.29-3.59.57-6,.36-7.46-3.86-.83-2.39-2.88-5.71-5.87-5-.65,3.19-.78,5.45-1.58,7.45-4.23,10.62-13.2,17.57-20.49,25.81A49.35,49.35,0,0,1,662.9,44.09ZM686,73.47a54.79,54.79,0,0,0,20.69-1.1c.87-.23,1.41-2.81,1.57-4.36.14-1.37-1-3-.63-4.19A46.27,46.27,0,0,1,711.74,55c1.35-2.24,2.65-4,.59-6.61-2.6-3.26-4.7-7.72-9.76-6.36-8.3,2.23-16.42,5.14-25.73,8.13,10.87,5.5,17.86-4.81,27.93-4.31-1.21,6.31-.85,13.11-3.87,17.67C698,67.92,691.57,70,686,73.47ZM576,219c2.23,1.53,3.59,2.21,4.6,3.24s2.29,2.82,2,3.28a50.8,50.8,0,0,1-5.21,5.9c-1,1.08-2,2.14-3,3.2,1.43.89,2.78,2.33,4.3,2.55,2.54.37,5.2-.18,7.8-.09,5.56.18,11.12.69,16.67.7,1.59,0,3.18-1.3,4.77-2-1.15-1.2-2.1-3-3.5-3.47a48,48,0,0,0-9-1.87c-2.55-.37-4-.89-4.21-4.16-.26-3.59-.44-6.15,3.77-7.22.9-.23,1.41-2,2.1-3.06-1-.56-2-1.51-3-1.61C587.92,213.75,582.54,215.81,576,219ZM871.83,73c.6-.79,1.42-2,2.41-3.12,2.55-2.85,5.33-5.53,7.69-8.53a4.78,4.78,0,0,0,.67-4.13c-1.62-3.41-7.74-5.42-11-3.48-4.67,2.8-9,6.1-14.49,9.84,3,0,4.94.29,6.77-.07,3.45-.69,4.22.86,3.7,3.79-1.05,5.9-3.72,10.63-9.81,13.28a9.8,9.8,0,0,0,4.62,1.33,28.82,28.82,0,0,0,7.37-.88c2.46-.72,4.72-2.14,7.07-3.26ZM298.16,47.29c-5.44.1-10.31,4.57-10.18,9.37.11,4.49,5.66,9.3,10.55,9.14s9.85-5.15,9.74-9.53C308.15,51.72,303.08,47.21,298.16,47.29Zm320.51,0c-5.17.08-9.71,4.39-9.69,9.21,0,4.6,4.89,9.29,9.68,9.29,5.06,0,10.18-4.69,10.2-9.35C628.88,51.54,624.05,47.2,618.67,47.29ZM98.19,63.21l.57,1.57c3.32-.48,6.77-.55,9.93-1.55,3.62-1.14,9.07-1.28,9-6.43s-5.18-5.2-9.08-6.06c-1.07-.23-2.58-1.08-2.78-1.91s.8-2.16,1.54-3c1.48-1.74,3.5-3.12,4.63-5s2.6-5.18,1.79-6.26c-1.87-2.52-3.37-6.64-7.32-5.8-1.15,6.26-2.51,12-3.15,17.91a11,11,0,0,0,2,6.67c2.35,3.56,2.2,5.34-1.62,7.26C101.89,61.46,100,62.32,98.19,63.21ZM676.82,57c2.79,18.09-8,30.46-16.85,43.93,1.53-.07,3.2-.15,4-1,4-4.18,8.44-8.16,11.41-13,3.56-5.82,5.92-12.4,8.58-18.74C686,63.39,682.93,58.33,676.82,57ZM392.94,169.07l-1-1.25-9.66,4.07,2.72,4.66-7.21,2.92c-.43-3.91-.8-7.21-1.31-11.9-2.85,3.45-5.55,5.92-7.11,9-.64,1.25,1.19,3.76,1.88,5.63,9.41-2,9.41-2,11.53,4.48l3.55-3.16c.57,2.32.95,3.88,1.34,5.43,7.09-1.78,9.94-7.29,6.46-13.07-.94,2.71-2.13,4.94-4.68,3.16Zm528.7,55.65c.94,4.74.88,8.43,2.46,11.18,1.23,2.15,4.49,3.14,6.85,4.65.68-1.78,1.35-3.56,2-5.33.16-.42.39-.81.64-1.33,7.29.13,10.57-4.64,12.91-10.59,1.08-2.73-.3-4.87-2.56-4.79-4.37.13-8.72,1.25-13,2.15-.12,0-.21,2.66.4,3.1.82.59,2.35.11,3.54.3a30.91,30.91,0,0,1,3.6,1c-.65,1.4-1,3.13-2,4.12-1.49,1.4-3.49,2.26-5.19,3.3Zm-400.22,3.66,1.24.89c2.16-2.31,4.72-4.36,6.43-7,6.12-9.35,12-18.87,17.83-28.41.57-.93.74-3.13.2-3.52a21.37,21.37,0,0,0-6.07-2.85c-.25-.08-1.61,2-1.79,3.19-1.15,7.55-5.08,13.94-8.47,20.54C527.81,217,524.55,222.67,521.42,228.38ZM394.69,21.09a1.1,1.1,0,0,0,.38.47c6.54,3.6,30,1.28,35.45-3.74.61-.57.35-3.3-.42-3.94-3.43-2.85-7.59-2.54-11.5-1.24C410.61,15.29,402.72,18.23,394.69,21.09ZM366.34,5.42C365.46,18.73,355.66,25.6,348,34.18a157.44,157.44,0,0,0,21.82-11.13c3.58-2.18,4.25-6.13,3.08-9.93C371.88,9.91,371,6.16,366.34,5.42Zm-58.2,172.79-8.24,3.6c.12.43.25.86.37,1.29l7.4-1.33.83,1.19-4.19,2.3c1.11,1.44,1.88,2.32,2.5,3.3.81,1.26,1.57,3.74,2.22,3.7,1.77-.12,3.48-1.28,5.21-2l-.42-1-4.77.66c-.54-6.39-.11-7,5.71-9.62,1,.93,2,2.48,2.73,2.35,6-1.12-1.88-5.12,2-6.8-6-1.39-6-1.39-5.07-7.08l-5-1.67-3.71,10.21Zm177-9.49c-1.25,5.16-.49,9,4.87,9.4l-11.78,3.35c5.2,2.73,10.07-3.15,15.55.28-2,1.34-3.93,2.05-4.93,3.43-2.83,3.89-2.68,4-5.06-.25-2,2.11-2.32,4.53,0,5.89,1.36.79,4.9.44,5.54-.59,2.42-3.86,5-3.91,8.48-1.85.93.55,2.34.3,3.54.41l.33-1.35L494.4,184l5.34-6.12-6.28-1.17c.29-1.86.51-3.31,1-6.2l-5.67,3.32ZM734.19,41.47c-2.1-2.5-1.06-7.2-5.34-6.78C728,40.57,727,46,726.37,51.44a17.76,17.76,0,0,0,.64,6.8c.29.95,2,1.69,3.24,2,.5.15,1.77-.76,2-1.44,2.05-5.59,4-11.23,5.84-16.86.13-.37-.12-.85-.23-1.49ZM198,14.71c4.23,3.25,4.14,7.37.15,12.07a60.6,60.6,0,0,0-4.28,6.45l1.73,1.5c4.18-3.85,8.29-7.8,12.58-11.53s1-6.3-1.38-8.56C204.12,12.14,200.92,11.26,198,14.71ZM800.19,34.84c3.08-.89,7.34-2,11.48-3.39,2.26-.77,4-2.25,1.41-4.67-4.77-4.38-11-3.67-15.71-5C798.35,26.31,799.28,30.6,800.19,34.84ZM538.55,220.22c.28,6.69,2.43,13.32-1.92,19.38-.33.45,1.89,3.17,3.36,4.23.52.37,3.29-.91,3.41-1.69a117.78,117.78,0,0,0,1.83-16.51C545.31,221.84,542.55,220.15,538.55,220.22ZM842.69,61.53c.63,7.27.47,14.11,4.09,20.28.36.62,1.83,1.29,2.23,1a4.36,4.36,0,0,0,2.08-2.6,63.86,63.86,0,0,0,.2-10.62C850.91,65.09,847.88,62.77,842.69,61.53Zm-368.3-9.34c1.7,4.27,2.52,7.24,4,9.82a30.4,30.4,0,0,0,5.93,7.76c2.07,1.83,4.55.32,3.45-2.18A66.87,66.87,0,0,0,480.11,55C479.1,53.61,476.72,53.26,474.39,52.19ZM694.16,39.84c4.49-2.48,8.69-4.71,12.77-7.13.78-.46,1.11-1.68,1.64-2.54-1-.53-2.18-1.72-2.93-1.48-6.25,1.95-12.41,4.16-18.7,6.33C688.89,38.93,693.91,34,694.16,39.84ZM238.4,15c4,3.93,6,9.36,12.49,8.78,1.13-.1,2.82-.14,3.21-.81s.05-2.39-.48-3.36C251.21,15.15,245.88,13.4,238.4,15ZM163.05,52.86l-1.73.23c-.83,5.84-1.45,11.75.76,17.47.49,1.27,2.69,1.88,4.11,2.79.57-1.44,1.88-3.06,1.58-4.29C166.45,63.6,164.67,58.25,163.05,52.86ZM177.79,18.5c1.51,5.86.46,12,7.86,15.66.77-2.42,2.56-5,1.9-6.58C185.9,23.67,184.16,19.2,177.79,18.5Zm-123.35,19c.85,4.19,1.53,7.6,2.25,11.19,2.3-.52,4.7-.91,7-1.63,1.28-.41,3.46-1.56,3.38-2-.28-1.48-1.12-3.47-2.32-4C61.61,39.5,58.17,38.67,54.44,37.46ZM160,26.3c.41,1.93.48,4.16,1.37,6a45.43,45.43,0,0,0,5,7.81c.25.33,3-.4,3.09-1A81.89,81.89,0,0,0,170.69,31ZM441,185.17l8.1,4.07c.37-4.48.77-9.37,1.23-14.92L441.61,178C446.36,181.38,441.66,182.92,441,185.17Zm-24.89,2.63,1.74.66L432.71,190c-2.35-2.51-4.82-4.05-5.57-6.18-1.83-5.15-2.13-5.57-8.35-3.46l4.86,1.37Zm-55.52-1c-.82-1.79-1.31-2.65-1.61-3.58a35.41,35.41,0,0,1-1.28-4.72c-.25-1.46.36-3.61-.42-4.28-1-.81-3-.39-5.27-.56,4.44,4.9.77,6.65-3.17,9.17ZM687.14,55.47c1.35,3,2.42,5.41,3.58,8a48.12,48.12,0,0,0,6-1.17c1.1-.35,2.88-1.77,2.74-2.23-.37-1.25-1.42-2.93-2.52-3.21A83.14,83.14,0,0,0,687.14,55.47ZM459.41,181.14l5-3.63c-1.77-2.74-3.28-5.09-4.78-7.43-.87,2.91-1.73,5.82-2.69,9Zm-6.74,7.07,16.17-1.55C463.53,183.57,458,184,452.67,188.21Zm519.35-4c1.17,4.67,3.08,6.71,6.5,7a2.66,2.66,0,0,0,2.2-1,2.39,2.39,0,0,0-.8-2.2C977.69,186.81,975.31,185.8,972,184.23Zm-114.85,38c.14-.53.27-1.06.4-1.58-2-3.34-4.73-3.78-8.62,0ZM323.72,190.93l1.14-2.1-10.3-4.26-.87,2Zm85.08-7-2.48.27c.11,1.89.23,3.78.34,5.66a10.7,10.7,0,0,0,2.33-.39C409.06,187.64,408.9,185.79,408.8,183.94Zm-146.26-6.07.72.5a23.14,23.14,0,0,0,3.37-2.37,6.12,6.12,0,0,0,1.31-2.62c.06-.2-1-1.08-1.26-1a6.1,6.1,0,0,0-2.47,1.76A20.9,20.9,0,0,0,262.54,177.87Z" transform="translate(165.5 133.5)"/><path d="M217.16,5.12c8.51,2.55,10.56,5.47,10.36,13.53-.12,5,0,9.92.12,14.89a31.85,31.85,0,0,0,.8,4.62c3.05-1,5.5-2.14,8-2.4,1.56-.16,3.26,1.07,4.9,1.67-1,1.28-1.85,3.13-3.21,3.75-9.17,4.16-9.28,4.08-8,14,.25,1.94,1.35,3.76,2.07,5.64.86-1.89,1.69-3.8,2.61-5.67.61-1.23,1.36-2.4,2-3.6,1,.93,2.41,1.68,3.09,2.83,2.39,4.11,1.75,8.17-1.2,11.68-4.69,5.58-5.23,7.51-1.87,13.88a126.36,126.36,0,0,0,8,12.88c1,1.51,3,2.41,4.49,3.59,1.07-1.72,2.16-3.43,3.18-5.18a25.33,25.33,0,0,0,1.1-3.26c1.3,2.95,2.48,4.66,2.79,6.53a107.75,107.75,0,0,1,1.23,12c.22,4-2.24,5.62-5.6,3.42-3.68-2.42-7.79-5-10.11-8.54-4.6-7-8.27-14.65-11.94-22.22-1.4-2.88-2.39-4.47-5.82-2.65-1.88,1-4.22,1.11-6.36,1.62l-.59-1.35A40.43,40.43,0,0,1,221,74.11c3.49-1.93,5.31-4.56,4.46-8.74s-1.46-8.56-2.21-12.83c-.45-2.58-1.91-3.4-4.37-2.42-.71.29-1.51.81-2.19.7-5.81-1-9.89,1.11-12.88,6.25-3.52,6.08-9.87,8.89-15.87,11.52-5.1,2.24-5,5.45-3.76,11.11l6.68-5.84-.46-1.37c2.51,1,5.1,1.92,7.5,3.17.91.47,2,1.83,1.88,2.68s-1.38,1.89-2.38,2.28a89.78,89.78,0,0,1-10.53,3.65c-3,.78-3.92,2.6-3.89,5.42a56.35,56.35,0,0,1-.26,8.82c-.22,1.48-1.54,2.8-2.36,4.19-1.17-.81-2.89-1.37-3.41-2.48-1.51-3.23-2.54-6.69-4-10.75l-9.44,3.35c-1.3.47-2.63,1.42-3.9,1.33-2.34-.16-5.46-.2-6.75-1.63s-.93-4.59-1.41-7.84c8.85,3.19,15.46-.93,22.36-2.73,1.4-.37,2.7-3.1,3-4.92.18-1.09-1.81-2.45-2.55-3.83a10.76,10.76,0,0,1-1.61-4.53c0-.93,1.47-1.85,2.21-2.83,1-1.38,2-2.81,3-4.22l-5.21-2a21.07,21.07,0,0,0,3.59-3c.86-1.1,1.81-2.8,1.52-3.91-.23-.86-2.28-1.47-3.61-1.74-2.5-.52-5.06-.72-7.6-1.05l-.11-2.15c10.58-3.2,21.1-6.67,31.81-9.35,2-.49,5,1.87,7.07,3.48,1.69,1.3,3.1,5.12,4,4.93a44.93,44.93,0,0,0,11.08-4.42c.82-.44,1-2.72.91-4.09-.62-5.81-1.51-11.6-2.25-17.4C218.36,15.73,217.79,10.59,217.16,5.12ZM196.59,53.2a71.2,71.2,0,0,0,2.95-7.75c.69-2.55-.84-4-3.38-3.24a81,81,0,0,0-10.8,3.92c-.91.4-1.21,2.18-1.78,3.32A19,19,0,0,0,186.81,51C189.76,51.74,192.75,52.34,196.59,53.2Zm-3.5,4.29c-3.27,2.17-8.24,2.37-9.52,7.48C189.61,65.43,191.29,61.34,193.09,57.49Z" transform="translate(165.5 133.5)"/><path d="M505.28,74.89c3.57-.17,7.61-2,10.36,3.46-3.54,1.74-7.07,3.67-10.77,5.21s-4.47,4.23-3.54,8.56l16-7.56.73,1c-2.42,2-4.72,4.26-7.29,6.1-6.78,4.86-13.66,9.59-20.55,14.29-4.71,3.22-8.32,3.33-11,.55-3.27-3.44-3.4-8.42-.39-12.57,1,1.72,1.68,4.57,3.06,5,2,.55,4.49-.51,6.64-1.29a29.48,29.48,0,0,0,7.88-3.75,5.84,5.84,0,0,0,1.69-5c-.3-1.26-2.48-2.39-4.06-2.93s-3.55-.35-5.34-.47l-.35-1.26a37.13,37.13,0,0,0,3.55-1.83c2-1.3,4.47-2.37,5.89-4.19,2.18-2.81.87-5.14-2.62-6.08a19.89,19.89,0,0,1-3.78-1.94,43.4,43.4,0,0,1,2.5-4.49c1.79-2.47,6.49-3.17,4.77-8.09h-4.18l6.4-7.83-1.26-1.8c-3.09,1-6.2,1.89-9.29,2.85-2.36.73-4.69,1.92-7.08,2.08-1.56.1-3.23-1.28-4.85-2,.13-.41.25-.82.37-1.23,5.83-1.81,11.56-4,17.5-5.3,4.55-1,4.89-3.37,3.86-7.86-8.65,3.12-17.41,8.55-26.53.76.7-.42,1.19-1,1.63-1,8.21.71,15.3-3.24,22.84-5.35,2.73-.76,2.76-2.42,1.65-4.17-1.86-2.93-3.72-6.15-8.21-5.23-.91.19-1.95-.21-4.29-.52,4.34-2.34,7.73-3.77,10.61-5.89,2-1.44,3.13-4,4.84-5.81,1-1.06,2.44-2.6,3.47-2.46A12.86,12.86,0,0,1,512,9.35c3.26,2.54,2.69,5.44-1.26,6.9-3.59,1.33-7.3,2.35-11.15,3.56,2.95,2.41,5.31,4.72,8.06,6.39,1.18.72,3.22.37,4.79.07,2.73-.53,5.36-1.8,8.09-2,1.46-.09,3,1.46,4.56,2.27-1.05,1.1-1.91,2.62-3.19,3.18a29.43,29.43,0,0,1-6.74,1.75c-4.23.74-6.19,3-5.43,8.11,1.71-.27,3.42-.42,5.07-.82,7.45-1.82,14.56,1.55,17.48,8.53a4.79,4.79,0,0,1,.16,3.61c-2.64,4.81-5.13,9.8-8.55,14-1.4,1.73-5,1.77-7.59,2.42-2.82.7-5.86.82-8.47,2-1.55.67-2.45,2.82-3.65,4.3Zm2.5-29.09c.11.46.23.93.35,1.4,1.78,0,3.7-.4,5.32.11s3.84,1.68,4.4,3.1c.4,1-1.2,3.28-2.45,4.34-1.85,1.56-4.41,2.29-6.26,3.86-1.58,1.34-2.6,3.36-4.51,6,12.77-.82,16.42-9,17.84-17.16.27-1.52-1.71-4.73-3.06-5C515.13,41.61,511.24,43.43,507.78,45.8Z" transform="translate(165.5 133.5)"/><path d="M818.12,217c9,.56,14.5,1.75,14.53,10.24,0,3.55,1,7.08,1.14,10.64.16,4.22,2.22,6.63,6.17,7.48,8.79,1.89,17-1.34,26.34-2.49-4-4.23-6.76-6.81-12.52-4.93-3.72,1.21-8.63-.44-12.74-1.67-1.54-.46-3.46-3.49-3.28-5.13.57-5.24,2-10.38,3.18-15.56l1.89-.05c.9,5.27,1.81,10.54,2.73,16,5.07-.62,4.61-3.38,2.45-7.66l9.86,2.45-1.94,6.2,7.27.46c-.78-6.66-1.42-12.85-2.36-19-.08-.54-2.22-1.14-3.35-1s-2.25,1.54-3.31,1.46c-2.17-.15-5.46-.3-6.16-1.59-1-1.83,0-4.69.12-7.47-6.65,2.49-12-.26-16.57-7.2a39.23,39.23,0,0,0,5.19-.73,105.89,105.89,0,0,0,10.9-3.56c2.88-1.18,4.27-3.09,2.46-6.58-1.57-3,.07-4.72,3.44-4.46,3.15.25,5.71,1,7.59,4.24,1,1.78,4.35,2.2,6.57,3.35,2.42,1.26,6.77,2.7,6.75,4-.07,3.92-4.26,2.88-6.93,3.55-4.87,1.22-10.1,1.77-13.24,7,4.34,0,8.22-.06,12.1,0,6.3.11,7.83,1.92,5.38,7.62-4.08,9.48-1.57,19.19-2.07,28.12,5.77.57,11.2.92,16.55,1.73,1.45.22,2.68,1.82,4,2.78-1.46.83-2.89,2.31-4.37,2.37-7.29.27-14.62-.28-21.87.31-6.62.53-13.11,2.45-19.72,3.2-8.13.93-12.52-2.11-15.86-9.68s-6.81-14.78-10.17-22.19A7,7,0,0,1,818.12,217Z" transform="translate(165.5 133.5)"/><path d="M741.79,247.36c1.45-1,1.68-1.31,1.93-1.32,7.71-.44,7.71-.44,6.81-8.13-.66-5.64-1.34-11.27-2.15-18.11-8.54,8.54-14.69,18.47-25,23.85,5.23-9.27,13.1-17,15.94-29-4,0-7.67.81-10.74-.23s-5.25-3.93-7.83-6l.74-1.26c4.6-1.13,9.29-2,13.76-3.47a76,76,0,0,0,13.1-5.64c4-2.27,2.34-6.24,1.31-9.47-.57-1.79-2.31-3.22-3.63-4.95,4.7-2.24,9-.06,11.49,3.11s2.6,7.72,4,12.44c.43,0,2.19.53,3.31-.09,5.56-3.08,10.93-.79,16.31.3,1.19.24,3.13,1.51,3.07,2.14A6,6,0,0,1,782,205a6.73,6.73,0,0,1-3.51,1c-5.51.42-11.09.41-16.53,1.27-2,.32-4.07,2.37-5.45,4.14-.41.53,1.23,2.87,2.17,4.22,1.66,2.39,4,4.44,5.18,7,4.23,9.15,12.91,12.34,21,16.38,4.9,2.44,9.77,4.92,14.66,7.38l-.6,1.57c-3.28-.86-6.58-1.67-9.85-2.59-11.87-3.34-22.13-9.28-30.34-18.62a4.11,4.11,0,0,0-3.12-1.17c-.53.06-1.38,1.79-1.25,2.64.89,5.71,1.91,11.41,3.11,17.07.5,2.39,1.65,4.64,2.27,7,.77,3-1.45,5.37-4.11,4C750.93,253.86,746.66,250.58,741.79,247.36Z" transform="translate(165.5 133.5)"/><path d="M523.06,102.08c8.62-12.86,14.18-26.94,19.15-41.38a44.61,44.61,0,0,1-6.3-1.7,3.14,3.14,0,0,1-1.49-2.54c.06-.63,1.4-1.3,2.29-1.66a17.25,17.25,0,0,1,4.39-1.34c4.55-.53,5.43-3.78,6.19-7.47.55-2.68,2.33-5.22,2.4-7.86.08-3.34-1-6.71-1.58-10.07-.17-1-.24-2-.36-3,1.13,0,2.45-.42,3.34,0,3.86,1.94,6.39,4.77,5.73,9.57-.6,4.4-1,8.83-1.48,13.72,2.2-.45,4.32-.43,6-1.3,5.07-2.7,8.69,0,12,3.05,4.56,4.18,5.59,9.55,3.55,15.24-2.8,7.79-5.72,15.56-9.07,23.12A38.43,38.43,0,0,1,561,99.27c-6.18,6.52-13.43,6-20.38-3.24,2.21,0,3.9-.14,5.54,0,5.8.61,8.11-.75,10.83-5.84C562.6,79.7,567.44,69,567.67,56.75c.1-5.62-1.3-6.42-6.7-4.84-5.88,1.72-9.06,4.83-11.35,11.05-4,10.7-9.75,20.76-15.25,30.83C532.14,97.9,528.83,101.53,523.06,102.08Z" transform="translate(165.5 133.5)"/><path d="M893.67,46.14c-2.46.33-5,1.25-7.37.91-15.13-2.16-28.72,2.17-41.78,9.24-3,1.65-6.27,3.67-9.56,4-5.93.61-8-1.69-9.14-8.66,9.59,4.29,16.5-2.83,24.47-5.3,4.22-1.32,5.56-5.63,5.11-13.24-3.43,1.45-6.63,2.78-9.82,4.17-1.42.61-2.76,1.77-4.2,1.89-2.21.18-5.27.51-6.55-.71-2.3-2.19-1.1-5.11.88-7.47,5.07-6,6-11.27,3.15-18.31,4.94-.17,8,2.45,8.58,6.56.51,3.4-.79,7.07-1.3,10.71,2.79.81,10-1.73,10.72-4.68.87-3.58.62-7.41,1.3-11,.87-4.59-1.21-7-5.54-8,4.35-4.2,8.77-4.94,12.92-1.68,1.39,1.1,2,3.58,2.3,5.53a24.19,24.19,0,0,1-.55,6.47c-.3,1.93-.81,3.82-1,4.74,4.56,0,8.94-.38,13.18.19,1.61.22,2.92,2.63,4.36,4a26.74,26.74,0,0,1-5,2.24,62.71,62.71,0,0,1-7.41.88c-8.12.89-12.23,5.37-13,14.78,3.41-.85,6.57-1.91,9.82-2.4,6.16-.93,12.2-4.51,18.6-1.6,2.55,1.15,4.73,3.09,7.08,4.67C893.89,44.79,893.78,45.46,893.67,46.14Z" transform="translate(165.5 133.5)"/><path d="M42.12,54.27,47,53.15c0,.91.34,1.71.06,2C42.9,60,42.47,65.76,42.38,71.71c-.12,8.23-.23,16.46-.59,24.68a19.46,19.46,0,0,1-1.71,6.6c-1.58,3.67-3.85,4.26-6.72,1.61-5-4.58-9.73-9.39-14.5-14.18-2.46-2.47-2.33-4.8,0-7.65,5.49-6.78,11.92-13.26,15.48-21,2.57-5.6,1.19-13,1.3-19.64,0-.34-2.78-1.34-3.94-1a16.84,16.84,0,0,1-13.52-1,17.72,17.72,0,0,1-3-2.64c5.38-1.17,10-2.15,14.62-3.18,4-.89,6.5-2.48,4.92-7.38a60,60,0,0,1-2.95-13.69c-.12-1.6,2.31-4.51,4-4.91,5-1.18,8.28,2.39,7.77,7.56-.42,4.28-.76,8.56-1.2,13.44,3.18-.47,5.58-1.13,8-1.06,1.29,0,2.54,1.31,3.82,2-.92,1-1.72,2.66-2.77,2.84-9,1.5-10.7,7.32-9.53,15.11C42.07,50.09,42,51.93,42.12,54.27ZM36.4,76.21l-1.87-.87c-2.11,2.29-4.31,4.5-6.32,6.88-5,5.88-3.34,9.93,4.93,11.37Q34.77,84.89,36.4,76.21Z" transform="translate(165.5 133.5)"/><path d="M690.39,209c-9.44,4.14-17.61,9.63-21.66,19.22,2.86,2.44,6.27,4.74,8.83,7.76,1.39,1.64,1.34,4.49,2,6.8-2.87.64-6.42,2.66-8.49,1.66-7.9-3.82-15.34-8.59-22.9-13.1-.63-.37-1.33-1.57-1.15-2.11a3.11,3.11,0,0,1,2-1.48c1.19-.29,2.51,0,3.7-.3,2.26-.5,5.83-.6,6.44-2a49,49,0,0,0,3.37-13.13c.1-.69-3.06-2.38-4.85-2.62-1.23-.17-3.17,1-4,2.2-5.16,7.36-8.59,9.57-19,11.3.82-2.36,1.58-4.46,2.27-6.58,1.45-4.51,2.8-9.05,4.32-13.54,1.09-3.23,2.58-4.31,6.21-2.25,6.59,3.73,13.38,5.81,21.15,1.88,2.65-1.34,6.89,0,10.28.7a116.29,116.29,0,0,1,11.2,3.55Z" transform="translate(165.5 133.5)"/><path d="M793.74,63.17c4.33-3.83,8.57-7.76,13-11.43a6.11,6.11,0,0,1,4.33-1.35c1.77.3,4.33,1.25,4.8,2.55s-.71,3.79-1.88,5.15c-1.67,1.95-4.11,3.22-6,5-4,3.85-3.21,9.65.14,14,4.35,5.69,9.85,7.32,16.49,8.39,10.67,1.71,21.1,5,31.77,6.7,7.77,1.28,15.79,1,23.65,1.77a101.31,101.31,0,0,1,18.32,3.74c-12.95,7.71-26.07,10.48-40.3,4.61-10.15-4.19-20.55-7.78-30.87-11.53-6.75-2.46-13.42-2.15-19.64,1.55-1.62,1-2.54,3-4,4.34a5.64,5.64,0,0,1-3.47,1.65A3.32,3.32,0,0,1,797.77,96a5.12,5.12,0,0,1,2-3.26c2.5-2,5.25-3.72,7.83-5.64,2.25-1.68,2.17-3.41.13-5.38a29,29,0,0,1-4.81-5.64c-1.37-2.26-3-4.9-3-7.34C800,64.1,798.78,62.2,793.74,63.17Z" transform="translate(165.5 133.5)"/><path d="M956.88,208.62l5.45,9.61c1.09-1.23,1.61-2.31,2.43-2.64a26.28,26.28,0,0,1,4.64-1.05c.1,1.42.65,3,.23,4.23-3.07,9.16-2,11.85,4.83,18.81,4.36,4.45,7.52,10.08,11.22,15.18l-1.56,1.81c-1.67-1-3.92-1.55-4.89-3-3.51-5.21-6.5-10.75-9.86-16.06-.81-1.29-2.27-2.18-3.42-3.26-.81,1.23-1.67,2.41-2.39,3.68-.45.79-.52,1.86-1.09,2.54-1.08,1.28-2.45,3.35-3.6,3.29a5.68,5.68,0,0,1-4.16-3.07c-.59-1.62-.41-4.4.65-5.61,7.82-8.84,7.91-8.75,1.37-18-4.58-6.5-6.78-7.1-15.7-3.62-8.19,3.19-16.25,6.74-24.45,9.88-1.94.75-4.25.53-6.39.75-.16-.58-.33-1.17-.5-1.76,1.47-.8,2.88-1.74,4.41-2.39,5.55-2.35,11.19-4.5,16.67-7,1.12-.51,1.7-2.2,2.53-3.34a23,23,0,0,0-3.48-2.22c-2-.88-4.2-1.51-6.31-2.24,0-.41,0-.81,0-1.21a50.17,50.17,0,0,1,6.79-2.37c3.13-.62,4.14-2.36,3.78-5.28s-.74-6.08-1.1-9.11c6.07-.68,9,1.88,7.72,7-1.13,4.55,1.42,4.5,5.14,4.62-.78-3.94-1.48-7.51-2.23-11.3,6.27.6,8.37,2.59,8.77,7.66a17.57,17.57,0,0,0,.09,2.31c2.07,8.7,2.2,9.06,10.64,8.05a52.15,52.15,0,0,1,8.75-.11c.85,0,1.64,1,2.46,1.54-.74.6-1.41,1.61-2.23,1.74C967.46,207.36,962.74,207.88,956.88,208.62Zm-18.42.35,11.7-3.88c-1.58-2.13-2.39-3.22-3.3-4.46C943.28,202.21,938.55,202.07,938.46,209Z" transform="translate(165.5 133.5)"/><path d="M125.32,69c1.12,3.82,2.31,7.62,3.34,11.46.64,2.39,1.09,4.84,1.51,7.28.6,3.55-.94,6.56-4.11,7.52-12,3.63-23.94,4.21-34.24-4.45-2.31-2-4.44-5.71-4.38-8.59.42-17.8.82-35.65,2.7-53.33.62-5.82.85-10.68-2.45-15.51,3.86-3,7.32-1.54,9.44,1,1.73,2,3.25,6,2.42,8.16a107.35,107.35,0,0,0-6.84,36.26,194.4,194.4,0,0,0,1.37,24.1,7.12,7.12,0,0,0,3.6,4.82,21.68,21.68,0,0,0,19.3-.49c4.5-2.21,6-5.92,5.8-10.66-.1-2.36,0-4.73,0-7.1Z" transform="translate(165.5 133.5)"/><path d="M736.15,93.8c2.74.8,4.89,1.41,7,2,5.65,1.69,7.43.52,7.37-5.49-.07-6.5-.65-13-.8-19.51-.35-15.81-.51-31.62-.93-47.42a111.15,111.15,0,0,0-1.36-12.84c-.38-2.66.38-3.53,3-2.73,7.55,2.27,9.65,7.75,7.26,15.73-.92,3.07-2,6.26-2,9.39.09,17.5.42,35,.86,52.51.09,3.83,1.42,7.65,1.3,11.45a26,26,0,0,1-2.43,9.64c-.5,1.13-3.93,2.31-4.66,1.73-4.81-3.79-9.26-8-13.78-12.2C736.61,95.78,736.58,95.07,736.15,93.8Z" transform="translate(165.5 133.5)"/><path d="M363.48,31a10.41,10.41,0,0,1,7.24,7.57c1.06,3.73.8,7.51-2.14,10.41a59.65,59.65,0,0,1-7.1,5.87c-2.48,1.8-3.77,3.9-3.29,7.08.66,4.39,1.09,8.82,1.68,13.69l6.6-1.65c-.79,2.76-1.39,5-2.1,7.31a59.77,59.77,0,0,1-3,8.63c-.79,1.57-2.48,3.36-4,3.66-1.15.23-3.28-1.49-4-2.86-3.35-6.09-2.29-12.6-1.11-19,.6-3.29,1.29-6.56,2.19-11.09L338,68c-.14-.33-.28-.65-.43-1C343,61.81,348.76,56.77,354,51.26S363.46,39.83,363.48,31Z" transform="translate(165.5 133.5)"/><path d="M416.2,48.15c3.65-1.56,5.37.58,6.15,3.45,3.38,12.31,4.95,24.76,3.31,37.58-1.78,13.81-9.44,17.24-20.47,19.34-3.6.69-7.45.11-11.18.11l-.35-1.28a30.43,30.43,0,0,1,4.06-2.07c10.22-3.46,15.87-11,17.9-21.12C418,72.32,419,60.31,416.2,48.15Z" transform="translate(165.5 133.5)"/><path d="M58.73,91.13A78.27,78.27,0,0,0,69.44,61.9l-1.26-.74c-2.45,3.32-4.94,6.61-7.32,10-1.61,2.26-2.88,5.36-6.44,3.4s-5.63-4.64-4-9.46c3.46,2.39,6.48,1.94,9.41-.59,5-4.28,12.19-6.69,11.44-15.4-.37-4.3.25-8.68.26-13,0-2.5.76-5.55-3.27-6.08-.18,0-.31-3.4,0-3.48,2.56-.65,5.65-1.92,7.74-1,2.77,1.17,5.26,3.8,4.63,7.72C79.34,41,78.44,48.8,76.9,56.5a204.83,204.83,0,0,1-5.68,22.84C69.37,85.08,66,90.05,58.73,91.13Z" transform="translate(165.5 133.5)"/><path d="M380.47,42.47c8.87,6.41,15.38-.16,22.54-1.43,10.64-1.89,21.22-4.13,31.89-5.78,5.08-.79,9.21,2.18,12.8,5.44a4,4,0,0,1,.95,3.65c-.42,1-2.11,1.73-3.33,1.88a13.41,13.41,0,0,1-4.57-.62c-13.47-3.22-26.43-1.17-39.1,3.74-2.14.83-4,2.26-6.17,3.16C389.56,55,383.22,53,381.27,48,380.78,46.73,380.85,45.25,380.47,42.47Z" transform="translate(165.5 133.5)"/><path d="M582.23,193.3l9.92,2.94.27,1.3c-1.28.7-2.55,2-3.84,2-7.2.12-10.75,4.68-13.72,10.37-4.33,8.28-8.78,16.51-13.44,24.61-1.24,2.16-3.42,3.78-5.82,5.29,5.33-11.69,13-22.35,14.61-35.43-2.57-1.73-7.08,1.08-8.2-3.72,3.89-1.37,8.86-1.7,11-4.32,1.82-2.26.38-7.13.38-12.06,2.79.33,6.14.09,8.71,1.38C583,186.15,582.23,190.18,582.23,193.3Z" transform="translate(165.5 133.5)"/><path d="M684.17,86.36a44.34,44.34,0,0,0,2.59,6.49c1.71,3,3.36,7.43,5.89,8.11,4.16,1.14,8.62-.87,11.78-4.74,3.57-4.37,6.11-9,6-15C702,82.26,695.83,89.85,687,88c0-.73-.09-1.23,0-1.28,7.18-3.11,14.25-6.58,21.67-9,1.86-.59,5.55,1.76,7.14,3.75,2,2.49,4.72,5.49,1.62,9.5-2,2.6-5.3,5-3.66,9.38.15.39-2.24,2.44-3.55,2.55-4.93.44-9.91.37-14.87.55-1.68.06-3.56-.14-5,.53-4.14,2-6.92-.63-7.72-3.47-1.23-4.34-.88-9.13-1.2-13.73Z" transform="translate(165.5 133.5)"/><path d="M662.9,44.09a49.35,49.35,0,0,0,4.93-4.27c7.29-8.24,16.26-15.19,20.49-25.81.8-2,.93-4.26,1.58-7.45,3-.73,5,2.59,5.87,5,1.47,4.22,3.87,4.43,7.46,3.86,4.62-.73,9.39-1.26,12.63,3.29.73,1,.84,2.5,1.23,3.76-1.4.32-3,1.21-4.16.85a72.51,72.51,0,0,1-9-3.63c-3.56-1.58-5.87-2.55-8.9,2.18-5.29,8.21-13.81,13.45-22.2,18.41-3,1.76-6.15,3.21-9.23,4.8Z" transform="translate(165.5 133.5)"/><path d="M686,73.47c5.57-3.5,12-5.55,14.9-9.92,3-4.56,2.66-11.36,3.87-17.67-10.07-.5-17.06,9.81-27.93,4.31,9.31-3,17.43-5.9,25.73-8.13,5.06-1.36,7.16,3.1,9.76,6.36,2.06,2.58.76,4.37-.59,6.61a46.27,46.27,0,0,0-4.11,8.79c-.4,1.18.77,2.82.63,4.19-.16,1.55-.7,4.13-1.57,4.36A54.79,54.79,0,0,1,686,73.47Z" transform="translate(165.5 133.5)"/><path d="M576,219c6.55-3.14,11.93-5.2,18-4.61,1,.1,2,1,3,1.61-.69,1.06-1.2,2.83-2.1,3.06-4.21,1.07-4,3.63-3.77,7.22.23,3.27,1.66,3.79,4.21,4.16a48,48,0,0,1,9,1.87c1.4.49,2.35,2.27,3.5,3.47-1.59.7-3.18,2-4.77,2-5.55,0-11.11-.52-16.67-.7-2.6-.09-5.26.46-7.8.09-1.52-.22-2.87-1.66-4.3-2.55,1-1.06,2-2.12,3-3.2a50.8,50.8,0,0,0,5.21-5.9c.31-.46-1.07-2.35-2-3.28S578.22,220.48,576,219Z" transform="translate(165.5 133.5)"/><path d="M871.83,73l5,4.77c-2.35,1.12-4.61,2.54-7.07,3.26a28.82,28.82,0,0,1-7.37.88,9.8,9.8,0,0,1-4.62-1.33c6.09-2.65,8.76-7.38,9.81-13.28.52-2.93-.25-4.48-3.7-3.79-1.83.36-3.79.07-6.77.07,5.45-3.74,9.82-7,14.49-9.84,3.23-1.94,9.35.07,11,3.48a4.78,4.78,0,0,1-.67,4.13c-2.36,3-5.14,5.68-7.69,8.53C873.25,71,872.43,72.18,871.83,73Z" transform="translate(165.5 133.5)"/><path d="M298.16,47.29c4.92-.08,10,4.43,10.11,9,.11,4.38-5,9.38-9.74,9.53S288.09,61.15,288,56.66C287.85,51.86,292.72,47.39,298.16,47.29Z" transform="translate(165.5 133.5)"/><path d="M618.67,47.29c5.38-.09,10.21,4.25,10.19,9.15,0,4.66-5.14,9.36-10.2,9.35-4.79,0-9.67-4.69-9.68-9.29C609,51.68,613.5,47.37,618.67,47.29Z" transform="translate(165.5 133.5)"/><path d="M98.19,63.21c1.84-.89,3.7-1.75,5.53-2.68,3.82-1.92,4-3.7,1.62-7.26a11,11,0,0,1-2-6.67c.64-5.87,2-11.65,3.15-17.91,4-.84,5.45,3.28,7.32,5.8.81,1.08-.68,4.36-1.79,6.26s-3.15,3.3-4.63,5c-.74.88-1.74,2.18-1.54,3s1.71,1.68,2.78,1.91c3.9.86,9,.84,9.08,6.06s-5.4,5.29-9,6.43c-3.16,1-6.61,1.07-9.93,1.55Z" transform="translate(165.5 133.5)"/><path d="M676.82,57c6.11,1.35,9.16,6.41,7.18,11.15-2.66,6.34-5,12.92-8.58,18.74-3,4.85-7.42,8.83-11.41,13-.84.88-2.51,1-4,1C668.79,87.44,679.61,75.07,676.82,57Z" transform="translate(165.5 133.5)"/><path d="M392.94,169.07l-3.51,10c2.55,1.78,3.74-.45,4.68-3.16,3.48,5.78.63,11.29-6.46,13.07-.39-1.55-.77-3.11-1.34-5.43l-3.55,3.16c-2.12-6.47-2.12-6.47-11.53-4.48-.69-1.87-2.52-4.38-1.88-5.63,1.56-3.06,4.26-5.53,7.11-9,.51,4.69.88,8,1.31,11.9l7.21-2.92-2.72-4.66,9.66-4.07Z" transform="translate(165.5 133.5)"/><path d="M921.64,224.72l9.63,7.73c1.7-1,3.7-1.9,5.19-3.3,1-1,1.39-2.72,2-4.12a30.91,30.91,0,0,0-3.6-1c-1.19-.19-2.72.29-3.54-.3-.61-.44-.52-3.08-.4-3.1,4.31-.9,8.66-2,13-2.15,2.26-.08,3.64,2.06,2.56,4.79-2.34,5.95-5.62,10.72-12.91,10.59-.25.52-.48.91-.64,1.33-.7,1.77-1.37,3.55-2,5.33-2.36-1.51-5.62-2.5-6.85-4.65C922.52,233.15,922.58,229.46,921.64,224.72Z" transform="translate(165.5 133.5)"/><path d="M521.42,228.38c3.13-5.71,6.39-11.35,9.37-17.14,3.39-6.6,7.32-13,8.47-20.54.18-1.18,1.54-3.27,1.79-3.19a21.37,21.37,0,0,1,6.07,2.85c.54.39.37,2.59-.2,3.52-5.83,9.54-11.71,19.06-17.83,28.41-1.71,2.62-4.27,4.67-6.43,7Z" transform="translate(165.5 133.5)"/><path d="M394.69,21.09c8-2.86,15.92-5.8,23.91-8.45,3.91-1.3,8.07-1.61,11.5,1.24.77.64,1,3.37.42,3.94-5.45,5-28.91,7.34-35.45,3.74A1.1,1.1,0,0,1,394.69,21.09Z" transform="translate(165.5 133.5)"/><path d="M366.34,5.42c4.7.74,5.54,4.49,6.53,7.7,1.17,3.8.5,7.75-3.08,9.93A157.44,157.44,0,0,1,348,34.18C355.66,25.6,365.46,18.73,366.34,5.42Z" transform="translate(165.5 133.5)"/><path d="M308.14,178.21l-2.41-.91,3.71-10.21,5,1.67c-.91,5.69-.91,5.69,5.07,7.08-3.92,1.68,3.92,5.68-2,6.8-.69.13-1.69-1.42-2.73-2.35-5.82,2.57-6.25,3.23-5.71,9.62l4.77-.66.42,1c-1.73.74-3.44,1.9-5.21,2-.65,0-1.41-2.44-2.22-3.7-.62-1-1.39-1.86-2.5-3.3l4.19-2.3-.83-1.19-7.4,1.33c-.12-.43-.25-.86-.37-1.29Z" transform="translate(165.5 133.5)"/><path d="M485.12,168.72l3.62,5.15,5.67-3.32c-.44,2.89-.66,4.34-1,6.2l6.28,1.17L494.4,184l7.27,3.4-.33,1.35c-1.2-.11-2.61.14-3.54-.41-3.51-2.06-6.06-2-8.48,1.85-.64,1-4.18,1.38-5.54.59-2.33-1.36-2-3.78,0-5.89,2.38,4.25,2.23,4.14,5.06.25,1-1.38,2.94-2.09,4.93-3.43-5.48-3.43-10.35,2.45-15.55-.28L490,178.12C484.63,177.72,483.87,173.88,485.12,168.72Z" transform="translate(165.5 133.5)"/><path d="M734.19,41.47l3.69-1c.11.64.36,1.12.23,1.49-1.89,5.63-3.79,11.27-5.84,16.86-.25.68-1.52,1.59-2,1.44-1.22-.36-3-1.1-3.24-2a17.76,17.76,0,0,1-.64-6.8C727,46,728,40.57,728.85,34.69,733.13,34.27,732.09,39,734.19,41.47Z" transform="translate(165.5 133.5)"/><path d="M198,14.71c2.94-3.45,6.14-2.57,8.8-.07,2.41,2.26,5.66,4.86,1.38,8.56s-8.4,7.68-12.58,11.53l-1.73-1.5a60.6,60.6,0,0,1,4.28-6.45C202.12,22.08,202.21,18,198,14.71Z" transform="translate(165.5 133.5)"/><path d="M800.19,34.84c-.91-4.24-1.84-8.53-2.82-13.05,4.75,1.32,10.94.61,15.71,5,2.63,2.42.85,3.9-1.41,4.67C807.53,32.87,803.27,34,800.19,34.84Z" transform="translate(165.5 133.5)"/><path d="M538.55,220.22c4-.07,6.76,1.62,6.68,5.41a117.78,117.78,0,0,1-1.83,16.51c-.12.78-2.89,2.06-3.41,1.69-1.47-1.06-3.69-3.78-3.36-4.23C541,233.54,538.83,226.91,538.55,220.22Z" transform="translate(165.5 133.5)"/><path d="M842.69,61.53c5.19,1.24,8.22,3.56,8.6,8.11a63.86,63.86,0,0,1-.2,10.62,4.36,4.36,0,0,1-2.08,2.6c-.4.24-1.87-.43-2.23-1C843.16,75.64,843.32,68.8,842.69,61.53Z" transform="translate(165.5 133.5)"/><path d="M341.91,171.21c1.26,1.72,3.61,3.45,3.58,5.15a59.12,59.12,0,0,1-2.68,15.75,20.33,20.33,0,0,1-1.1-3.48c-.2-1.34.24-2.81-.15-4-.32-1-1.42-1.82-2.29-2.59-.12-.1-1.38.74-1.34.86a38.78,38.78,0,0,0,1.75,3.52l-6.33,1.83c.74-2.71,1.67-5,1.92-7.28.33-3.21.11-6.38,4.91-6.07.53,0,1.23-2.44,1.86-3.75Z" transform="translate(165.5 133.5)"/><path d="M474.39,52.19c2.33,1.07,4.71,1.42,5.72,2.78a66.87,66.87,0,0,1,7.67,12.62c1.1,2.5-1.38,4-3.45,2.18A30.4,30.4,0,0,1,478.4,62C476.91,59.43,476.09,56.46,474.39,52.19Z" transform="translate(165.5 133.5)"/><path d="M694.16,39.84c-.25-5.88-5.27-.91-7.22-4.82,6.29-2.17,12.45-4.38,18.7-6.33.75-.24,2,.95,2.93,1.48-.53.86-.86,2.08-1.64,2.54C702.85,35.13,698.65,37.36,694.16,39.84Z" transform="translate(165.5 133.5)"/><path d="M238.4,15c7.48-1.59,12.81.16,15.22,4.61.53,1,.93,2.57.48,3.36s-2.08.71-3.21.81C244.45,24.35,242.42,18.92,238.4,15Z" transform="translate(165.5 133.5)"/><path d="M163.05,52.86c1.62,5.39,3.4,10.74,4.72,16.2.3,1.23-1,2.85-1.58,4.29-1.42-.91-3.62-1.52-4.11-2.79-2.21-5.72-1.59-11.63-.76-17.47Z" transform="translate(165.5 133.5)"/><path d="M177.79,18.5c6.37.7,8.11,5.17,9.76,9.08.66,1.56-1.13,4.16-1.9,6.58C178.25,30.54,179.3,24.36,177.79,18.5Z" transform="translate(165.5 133.5)"/><path d="M54.44,37.46c3.73,1.21,7.17,2,10.3,3.51,1.2.56,2,2.55,2.32,4,.08.46-2.1,1.61-3.38,2-2.29.72-4.69,1.11-7,1.63C56,45.06,55.29,41.65,54.44,37.46Z" transform="translate(165.5 133.5)"/><path d="M160,26.3,170.69,31a81.89,81.89,0,0,1-1.15,8.15c-.12.55-2.84,1.28-3.09,1a45.43,45.43,0,0,1-5-7.81C160.52,30.46,160.45,28.23,160,26.3Z" transform="translate(165.5 133.5)"/><path d="M441,185.17c.65-2.25,5.35-3.79.6-7.22l8.73-3.63c-.46,5.55-.86,10.44-1.23,14.92Z" transform="translate(165.5 133.5)"/><path d="M416.12,187.8l7.53-6.1-4.86-1.37c6.22-2.11,6.52-1.69,8.35,3.46.75,2.13,3.22,3.67,5.57,6.18l-14.85-1.51Z" transform="translate(165.5 133.5)"/><path d="M360.6,186.83l-11.75-4c3.94-2.52,7.61-4.27,3.17-9.17,2.31.17,4.32-.25,5.27.56.78.67.17,2.82.42,4.28a35.41,35.41,0,0,0,1.28,4.72C359.29,184.18,359.78,185,360.6,186.83Z" transform="translate(165.5 133.5)"/><path d="M687.14,55.47a83.14,83.14,0,0,1,9.79,1.42c1.1.28,2.15,2,2.52,3.21.14.46-1.64,1.88-2.74,2.23a48.12,48.12,0,0,1-6,1.17C689.56,60.88,688.49,58.48,687.14,55.47Z" transform="translate(165.5 133.5)"/><path d="M279.82,182.13l-9.94-4c1.17-.66,3.53-1.19,4.14-2.52s-.29-3.63-.7-6.65l7,5.11-.57,8.22Z" transform="translate(165.5 133.5)"/><path d="M459.41,181.14l-2.43-2c1-3.23,1.82-6.14,2.69-9.06,1.5,2.35,3,4.7,4.78,7.44Z" transform="translate(165.5 133.5)"/><path d="M452.67,188.21c5.34-4.18,10.86-4.64,16.17-1.55Z" transform="translate(165.5 133.5)"/><path d="M972,184.23c3.29,1.57,5.67,2.58,7.9,3.85a2.39,2.39,0,0,1,.8,2.2,2.66,2.66,0,0,1-2.2,1C975.1,190.94,973.19,188.9,972,184.23Z" transform="translate(165.5 133.5)"/><path d="M279.71,182.24c2.65,1.57,5.34,3.07,7.91,4.76a16.87,16.87,0,0,1,2.61,2.72c-1.35.24-3.1,1.12-4,.59-3.07-1.87-6.64-3.63-6.43-8.18Z" transform="translate(165.5 133.5)"/><path d="M857.17,222.18,849,220.55c3.89-3.73,6.59-3.29,8.62,0C857.44,221.12,857.31,221.65,857.17,222.18Z" transform="translate(165.5 133.5)"/><path d="M323.72,190.93l-10-4.36.87-2,10.3,4.26Z" transform="translate(165.5 133.5)"/><path d="M342,171.1c-2.19,1.84-4.36,3-6.7-.9l10.32-2.3.39,1.09-4.14,2.22Z" transform="translate(165.5 133.5)"/><path d="M408.8,183.94c.1,1.85.26,3.7.19,5.54a10.7,10.7,0,0,1-2.33.39c-.11-1.88-.23-3.77-.34-5.66Z" transform="translate(165.5 133.5)"/><path d="M262.54,177.87a20.9,20.9,0,0,1,1.67-3.69,6.1,6.1,0,0,1,2.47-1.76c.24-.12,1.32.76,1.26,1a6.12,6.12,0,0,1-1.31,2.62,23.14,23.14,0,0,1-3.37,2.37Z" transform="translate(165.5 133.5)"/><path class="cls-4" d="M196.59,53.2c-3.84-.86-6.83-1.46-9.78-2.23a19,19,0,0,1-3.23-1.52c.57-1.14.87-2.92,1.78-3.32a81,81,0,0,1,10.8-3.92c2.54-.73,4.07.69,3.38,3.24A71.2,71.2,0,0,1,196.59,53.2Z" transform="translate(165.5 133.5)"/><path class="cls-4" d="M193.09,57.49c-1.8,3.85-3.48,7.94-9.52,7.48C184.85,59.86,189.82,59.66,193.09,57.49Z" transform="translate(165.5 133.5)"/><path class="cls-4" d="M507.78,45.8c3.46-2.37,7.35-4.19,11.63-3.39,1.35.26,3.33,3.47,3.06,5-1.42,8.15-5.07,16.34-17.84,17.16,1.91-2.59,2.93-4.61,4.51-6,1.85-1.57,4.41-2.3,6.26-3.86,1.25-1.06,2.85-3.34,2.45-4.34-.56-1.42-2.7-2.56-4.4-3.1s-3.54-.11-5.32-.11C508,46.73,507.89,46.26,507.78,45.8Z" transform="translate(165.5 133.5)"/><path class="cls-4" d="M36.4,76.21q-1.63,8.69-3.26,17.38c-8.27-1.44-9.89-5.49-4.93-11.37,2-2.38,4.21-4.59,6.32-6.88Z" transform="translate(165.5 133.5)"/><path class="cls-4" d="M938.46,209c.09-6.9,4.82-6.76,8.4-8.34.91,1.24,1.72,2.33,3.3,4.46Z" transform="translate(165.5 133.5)"/></g></g></g></g></svg>