<?xml version="1.0" encoding="utf-8"?>
<!-- Generator: Adobe Illustrator 24.3.0, SVG Export Plug-In . SVG Version: 6.00 Build 0)  -->
<svg version="1.1" id="maruko-logo" xmlns="http://www.w3.org/2000/svg" xmlns:xlink="http://www.w3.org/1999/xlink" x="0px"
	 y="0px" viewBox="0 0 1920 1080" style="enable-background:new 0 0 1920 1080;" xml:space="preserve">
<style type="text/css">
	.st0{fill:#FEFEFE;}
	.st1{fill:#090909;}
	.st2{fill:#FBFBFB;}
</style>
<g>
	<path class="st0" d="M1178.5,768h-500c0-166.67,0-333.33,0-500c166.67,0,327.31,0,500,0C1178.5,434.67,1178.5,601.33,1178.5,768z
		 M973.45,640.61c3.77,14.25-10.34,56.4,13.29,49.66c55.74-19.04,105.02-51.84,158.08-76.44c8.64-4.31,10.5-9.49,10.33-17.9
		c-0.78-36.85-0.72-73.72-1.24-110.57c6.35-58.37-2.77-135.57-80.81-142.49c-32.86-6.11-60.8,38.62-87.62,17.61
		c-22.34-19.52-56.33-22.84-82.58-8.55c-47.58,25.9-94.89,52.24-142.99,77.26c-24.82,12.91-43.58,29.25-49.37,56.2
		c4.42,273.05-41.44,229.2,132.49,155.09c0,18.69,0,35.13,0,55.32C892.94,688.28,925.76,651.54,973.45,640.61z"/>
	<path class="st1" d="M973.45,640.61c-47.7,10.93-80.51,47.67-130.42,55.18c0-20.2,0-36.63,0-55.32
		c-174.1,74.31-128.01,117.62-132.5-155.09c5.79-26.94,24.55-43.28,49.37-56.19c48.09-25.02,95.41-51.36,142.99-77.26
		c26.25-14.29,60.24-10.97,82.58,8.54c26.86,20.98,54.78-23.71,87.63-17.6c77.99,6.99,87.19,84.02,80.8,142.49
		c0.52,36.86,0.47,73.72,1.25,110.57c0.18,8.41-1.69,13.59-10.33,17.89c-53.06,24.61-102.34,57.4-158.08,76.45
		C963.25,697.33,977.13,654.51,973.45,640.61z M996.7,663.44c38.84-12.29,72.94-34.94,109.38-52.54c7.77-4.21,20.75-4.22,20.64-18.8
		c-0.47-60.26,0.47-120.53,0.19-180.79c-0.24-37.11-44.73-62.49-81.65-43.66c-31.57,16.03-62.91,32.45-94.35,48.71
		c-14.08,6.47,1.08,12.51,8.1,17.09c24.01,12.74,36.37,32.44,36.77,57.84C996.64,548.97,996.53,605.62,996.7,663.44z M866.12,664.44
		c34.77-10.15,63.26-32,96.47-45.61c10.12-4.66,12.1-9.94,11.9-19.33c-0.6-27.95-0.06-55.92-0.29-83.89
		c7.38-43.22-21.4-85.33-73.55-70.97c-23.55,6.81-34.53,20.68-34.53,43.62C866.12,546.81,866.12,603.43,866.12,664.44z
		 M734.15,668.06c35.69-11.14,66.56-33.15,100.1-49.22c15.13-11.26,4.84-101.82,6.64-125.41c-1.53-35.42-42.88-59.47-76.83-43.94
		c-15.14,5.97-29.39,15.66-29.6,32.83C733.68,543.64,734.15,604.99,734.15,668.06z M938.3,361.53c-45.66,8.89-80.77,37-121.61,56.22
		c-2.35,1.26-4.62,4.24-4.96,6.66c7.5,9.43,21.98,16.4,32.63,23.06c12.6,5.6,21.3-7.21,30.3-13.09
		c30.53-16.61,61.37-32.73,92.14-48.94C990.3,371.58,948.29,365.27,938.3,361.53z"/>
	<path class="st2" d="M996.7,663.44c-0.17-57.81-0.06-114.48-0.91-172.15c-0.4-25.41-12.76-45.1-36.77-57.84
		c-6.98-4.53-22.23-10.66-8.1-17.09c31.43-16.26,62.78-32.69,94.35-48.71c36.9-18.79,81.43,6.51,81.64,43.66
		c0.28,60.26-0.67,120.53-0.19,180.79c0.11,14.58-12.87,14.59-20.64,18.8C1069.63,628.51,1035.55,651.14,996.7,663.44z"/>
	<path class="st0" d="M866.12,664.44c0-61.02,0-117.63,0-176.17c0-22.94,10.98-36.81,34.53-43.62
		c52.16-14.3,80.94,27.69,73.55,70.97c0.24,27.96-0.31,55.93,0.29,83.88c0.2,9.38-1.77,14.67-11.9,19.33
		C929.38,632.45,900.9,654.28,866.12,664.44z"/>
	<path class="st0" d="M734.15,668.06c0-63.07-0.47-124.41,0.3-185.74c0.22-17.17,14.46-26.86,29.6-32.83
		c33.94-15.48,75.32,8.46,76.82,43.94c-1.77,23.62,8.48,114.05-6.63,125.41C800.7,634.91,769.85,656.91,734.15,668.06z"/>
	<path class="st2" d="M938.3,361.53c10.12,3.64,51.89,10.12,28.51,23.9c-30.78,16.22-61.61,32.33-92.14,48.95
		c-8.99,5.87-17.72,18.71-30.3,13.09c-10.65-6.64-25.15-13.64-32.64-23.05c0.34-2.42,2.61-5.41,4.96-6.66
		C857.54,398.52,892.63,370.43,938.3,361.53z"/>
</g>
<line class="st0" x1="719.75" y1="691.33" x2="710.53" y2="485.38"/>
</svg>
