<?xml version="1.0" encoding="utf-8"?>
<!-- Generator: Adobe Illustrator 24.3.0, SVG Export Plug-In . SVG Version: 6.00 Build 0)  -->
<svg version="1.1" id="レイヤー_1" xmlns="http://www.w3.org/2000/svg" xmlns:xlink="http://www.w3.org/1999/xlink" x="0px"
	 y="0px" viewBox="0 0 1759 269" style="enable-background:new 0 0 1759 269;" xml:space="preserve">
<style type="text/css">
	.st0{fill:none;}
	.st1{fill:#090909;}
	.st2{opacity:0.89;}
	.st3{font-family:'ToppanBunkyuMidashiMinchoStdN-ExtraBold-83pv-RKSJ-H';}
	.st4{font-size:153px;}
</style>
<g>
	<path class="st0" d="M312.5,291h-300c0-100,0-200,0-300c100,0,196.39,0,300,0C312.5,91,312.5,191,312.5,291z"/>
	<path class="st0" d="M189.47,214.57c2.26,8.55-6.2,33.84,7.97,29.79c33.44-11.43,63.01-31.11,94.85-45.87
		c5.18-2.59,6.3-5.69,6.2-10.74c-0.47-22.11-0.43-44.23-0.74-66.34c3.81-35.02-1.66-81.34-48.48-85.49
		c-19.71-3.67-36.48,23.17-52.57,10.57c-13.4-11.71-33.8-13.7-49.55-5.13C118.59,56.89,90.2,72.7,61.34,87.71
		c-14.89,7.75-26.15,17.55-29.62,33.72c2.65,163.83-24.86,137.52,79.49,93.05c0,11.21,0,21.08,0,33.19
		C141.16,243.17,160.86,221.12,189.47,214.57z"/>
	<path class="st1" d="M189.47,214.57c-28.62,6.56-48.31,28.6-78.25,33.11c0-12.12,0-21.98,0-33.19
		c-104.46,44.58-76.81,70.57-79.5-93.05c3.47-16.17,14.73-25.97,29.62-33.72c28.86-15.01,57.25-30.82,85.79-46.36
		c15.75-8.57,36.15-6.58,49.55,5.13c16.11,12.59,32.87-14.23,52.58-10.56c46.79,4.19,52.32,50.41,48.48,85.49
		c0.31,22.11,0.28,44.23,0.75,66.34c0.11,5.04-1.01,8.15-6.2,10.74c-31.83,14.76-61.41,34.44-94.85,45.87
		C183.35,248.6,191.68,222.91,189.47,214.57z M203.42,228.27c23.31-7.37,43.76-20.96,65.63-31.52c4.66-2.53,12.45-2.53,12.38-11.28
		c-0.28-36.16,0.28-72.32,0.12-108.47c-0.14-22.27-26.84-37.49-48.99-26.2c-18.94,9.62-37.75,19.47-56.61,29.23
		c-8.45,3.88,0.65,7.51,4.86,10.25c14.41,7.64,21.82,19.46,22.06,34.71C203.38,159.58,203.32,193.57,203.42,228.27z M125.07,228.87
		c20.86-6.09,37.96-19.2,57.88-27.37c6.07-2.8,7.26-5.97,7.14-11.6c-0.36-16.77-0.03-33.55-0.17-50.33
		c4.43-25.93-12.84-51.2-44.13-42.58c-14.13,4.09-20.72,12.41-20.72,26.17C125.07,158.29,125.07,192.26,125.07,228.87z
		 M45.89,231.03c21.42-6.68,39.93-19.89,60.06-29.53c9.08-6.76,2.9-61.09,3.98-75.25C109.01,105,84.2,90.57,63.83,99.89
		c-9.09,3.58-17.63,9.39-17.76,19.7C45.61,156.39,45.89,193.19,45.89,231.03z M168.38,47.12c-27.39,5.33-48.46,22.2-72.96,33.73
		c-1.41,0.76-2.77,2.54-2.98,4c4.5,5.66,13.19,9.84,19.58,13.83c7.56,3.36,12.78-4.33,18.18-7.86
		c18.32-9.97,36.82-19.64,55.29-29.37C199.58,53.15,174.37,49.36,168.38,47.12z"/>
	<path class="st0" d="M203.42,228.27c-0.1-34.69-0.04-68.69-0.55-103.29c-0.24-15.24-7.66-27.06-22.06-34.71
		c-4.19-2.72-13.34-6.4-4.86-10.25c18.86-9.76,37.67-19.61,56.61-29.23c22.14-11.27,48.86,3.91,48.99,26.2
		c0.17,36.16-0.4,72.32-0.12,108.47c0.07,8.75-7.72,8.76-12.38,11.28C247.18,207.31,226.73,220.88,203.42,228.27z"/>
	<path class="st0" d="M125.07,228.87c0-36.61,0-70.58,0-105.7c0-13.77,6.59-22.09,20.72-26.18c31.29-8.58,48.56,16.61,44.13,42.58
		c0.14,16.78-0.18,33.56,0.18,50.33c0.12,5.63-1.06,8.8-7.14,11.6C163.03,209.67,145.94,222.77,125.07,228.87z"/>
	<path class="st0" d="M45.89,231.03c0-37.84-0.28-74.65,0.18-111.45c0.13-10.3,8.67-16.11,17.76-19.7
		c20.36-9.29,45.19,5.08,46.09,26.36c-1.06,14.17,5.09,68.43-3.98,75.25C85.82,211.15,67.31,224.34,45.89,231.03z"/>
	<path class="st0" d="M168.38,47.12c6.07,2.19,31.13,6.07,17.11,14.34c-18.47,9.73-36.97,19.4-55.29,29.37
		c-5.39,3.52-10.64,11.23-18.18,7.85c-6.39-3.99-15.09-8.18-19.58-13.83c0.2-1.45,1.57-3.24,2.98-4
		C119.92,69.31,140.98,52.46,168.38,47.12z"/>
</g>
<rect x="333.57" y="56" class="st0" width="1405.43" height="192"/>
<text transform="matrix(1 0 0 1 333.5679 190.6406)" class="st2 st3 st4">丸幸せんい株式会社</text>
<rect x="1377.2" y="458.12" class="st0" width="2.41" height="2.41"/>
<rect x="229.29" y="482.23" class="st0" width="2.41" height="0"/>
</svg>
