<?xml version="1.0" encoding="utf-8"?>
<!-- Generator: Adobe Illustrator 24.3.0, SVG Export Plug-In . SVG Version: 6.00 Build 0)  -->
<svg version="1.1" xmlns="http://www.w3.org/2000/svg" xmlns:xlink="http://www.w3.org/1999/xlink" x="0px" y="0px"
	 viewBox="0 0 938 225" style="enable-background:new 0 0 938 225;" xml:space="preserve">
<style type="text/css">
	.st0{clip-path:url(#SVGID_2_);}
	.st1{clip-path:url(#SVGID_4_);}
	.st2{fill:#FFFFFF;}
	.st3{opacity:0.6;fill:none;stroke:#000000;stroke-width:13;stroke-miterlimit:10;}
</style>
<g id="base">
	<g>
		<defs>
			<rect id="SVGID_1_" x="14.5" y="48.5" width="911" height="127"/>
		</defs>
		<clipPath id="SVGID_2_">
			<use xlink:href="#SVGID_1_"  style="overflow:visible;"/>
		</clipPath>
		<g class="st0">
			<defs>
				<rect id="SVGID_3_" x="-146" y="-73" width="1242" height="424"/>
			</defs>
			<clipPath id="SVGID_4_">
				<use xlink:href="#SVGID_3_"  style="overflow:visible;"/>
			</clipPath>
			<g class="st1">
				<g>
					<path class="st2" d="M1091,339c-414,0-828,0-1242,0c0-141.33,0-282.67,0-424c414,0,828,0,1242,0
						C1091,56.33,1091,197.67,1091,339z M294.31,230.64c-0.21,4.54,3.36,6.3,6.43,8.17c0.88,0.54,2.63-0.35,3.98-0.59
						c-0.86-0.92-1.59-2.05-2.61-2.72c-2.56-1.69-5.26-3.18-7.9-4.76c0.19-2.71,0.37-5.41,0.57-8.23c-1.75-1.29-4.03-2.96-6.96-5.1
						c0.4,3.02,1.36,5.2,0.7,6.65c-0.61,1.33-2.96,1.86-4.14,2.52C287.66,227.91,290.99,229.27,294.31,230.64z M356.41,219.71
						c1.38-0.74,2.76-1.48,4.14-2.22c-0.13-0.36-0.26-0.73-0.39-1.09c-3.39,0.76-6.78,1.52-10.32,2.31c2.34,3.87,4.51,2.74,6.7,0.9
						c-0.62,1.31-1.32,3.78-1.86,3.75c-4.8-0.31-4.57,2.86-4.91,6.07c-0.24,2.32-1.17,4.57-1.91,7.28c1.52-0.44,3.96-1.14,6.33-1.82
						c-0.79-1.52-1.36-2.49-1.75-3.53c-0.04-0.11,1.22-0.96,1.34-0.85c0.87,0.76,1.96,1.57,2.28,2.58c0.39,1.24-0.04,2.72,0.15,4.05
						c0.17,1.19,0.72,2.33,1.1,3.49c1.61-5.47,2.61-10.6,2.69-15.75C360.02,223.16,357.67,221.43,356.41,219.71z M231.66,53.62
						c0.64,5.48,1.2,10.62,1.85,15.75c0.73,5.81,1.63,11.59,2.24,17.41c0.15,1.36-0.09,3.65-0.91,4.08
						c-3.52,1.86-7.23,3.58-11.07,4.42c-0.9,0.2-2.3-3.62-3.99-4.92c-2.1-1.61-5.1-3.98-7.08-3.48c-10.71,2.68-21.22,6.15-31.8,9.35
						c0.04,0.72,0.07,1.43,0.11,2.15c2.54,0.33,5.1,0.53,7.6,1.05c1.33,0.28,3.39,0.89,3.61,1.74c0.29,1.12-0.66,2.81-1.52,3.91
						c-0.96,1.22-2.41,2.06-3.58,3.02c2.08,0.82,3.64,1.43,5.2,2.04c-0.99,1.41-1.95,2.84-2.98,4.21c-0.74,0.98-2.22,1.91-2.21,2.84
						c0.02,1.52,0.85,3.11,1.61,4.53c0.74,1.38,2.73,2.74,2.54,3.83c-0.3,1.82-1.61,4.55-3.01,4.92c-6.89,1.8-13.5,5.92-22.36,2.73
						c0.48,3.25,0.06,6.34,1.41,7.84c1.29,1.44,4.41,1.47,6.76,1.63c1.26,0.09,2.59-0.86,3.9-1.33c3.28-1.17,6.57-2.33,9.44-3.35
						c1.47,4.06,2.5,7.52,4.01,10.74c0.52,1.12,2.24,1.67,3.41,2.49c0.82-1.39,2.14-2.71,2.36-4.19c0.42-2.89,0.3-5.88,0.26-8.82
						c-0.04-2.82,0.84-4.63,3.89-5.42c3.59-0.93,7.08-2.28,10.53-3.64c0.99-0.39,2.3-1.43,2.38-2.28c0.08-0.85-0.98-2.22-1.89-2.69
						c-2.4-1.25-4.99-2.13-7.5-3.16c0.15,0.45,0.31,0.91,0.46,1.36c-2,1.75-4,3.5-6.68,5.85c-1.24-5.66-1.34-8.88,3.76-11.11
						c6-2.63,12.35-5.44,15.88-11.52c2.98-5.14,7.07-7.21,12.88-6.25c0.67,0.11,1.47-0.41,2.19-0.69c2.46-0.98,3.92-0.16,4.37,2.41
						c0.75,4.28,1.36,8.58,2.21,12.84c0.84,4.18-0.97,6.8-4.46,8.74c-1.33,0.74-2.51,1.77-3.75,2.66c0.2,0.45,0.4,0.9,0.6,1.35
						c2.13-0.51,4.48-0.62,6.36-1.62c3.44-1.82,4.42-0.23,5.82,2.65c3.68,7.56,7.35,15.21,11.94,22.22
						c2.32,3.55,6.43,6.11,10.12,8.54c3.35,2.2,5.81,0.56,5.6-3.41c-0.22-4.03-0.57-8.07-1.24-12.04c-0.31-1.86-1.49-3.58-2.78-6.53
						c-0.7,2.12-0.8,2.75-1.1,3.26c-1.02,1.75-2.12,3.46-3.18,5.18c-1.52-1.18-3.45-2.08-4.49-3.59c-2.87-4.14-5.61-8.42-7.96-12.87
						c-3.36-6.37-2.82-8.3,1.87-13.89c2.95-3.51,3.6-7.57,1.2-11.67c-0.67-1.15-2.04-1.9-3.09-2.83c-0.68,1.2-1.43,2.37-2.04,3.6
						c-0.92,1.87-1.75,3.78-2.62,5.67c-0.71-1.88-1.82-3.7-2.07-5.64c-1.26-9.88-1.15-9.8,8.02-13.96c1.36-0.62,2.15-2.46,3.21-3.74
						c-1.64-0.6-3.34-1.83-4.91-1.67c-2.54,0.26-4.99,1.43-8.04,2.4c-0.31-1.72-0.76-3.17-0.8-4.62c-0.13-4.96-0.24-9.93-0.12-14.89
						C242.22,59.09,240.17,56.17,231.66,53.62z M519.78,123.39c-0.37-0.42-0.74-0.84-1.11-1.25c1.19-1.48,2.1-3.63,3.64-4.3
						c2.61-1.14,5.65-1.26,8.47-1.96c2.62-0.65,6.19-0.69,7.59-2.42c3.42-4.23,5.92-9.22,8.56-14.03c0.5-0.92,0.28-2.54-0.17-3.61
						c-2.92-6.98-10.03-10.35-17.48-8.53c-1.65,0.4-3.36,0.55-5.07,0.83c-0.76-5.08,1.2-7.37,5.43-8.11
						c2.29-0.4,4.64-0.83,6.75-1.75c1.28-0.56,2.13-2.09,3.18-3.18c-1.52-0.81-3.09-2.36-4.56-2.27c-2.72,0.17-5.36,1.44-8.09,1.97
						c-1.57,0.3-3.61,0.65-4.79-0.07c-2.75-1.67-5.1-3.98-8.06-6.38c3.86-1.22,7.56-2.24,11.15-3.56c3.95-1.46,4.52-4.36,1.26-6.9
						c-1.65-1.28-3.79-2.27-5.83-2.56c-1.04-0.15-2.5,1.4-3.47,2.46c-1.71,1.86-2.86,4.37-4.83,5.82
						c-2.88,2.12-6.28,3.54-10.61,5.89c2.34,0.31,3.37,0.7,4.29,0.52c4.49-0.92,6.35,2.3,8.21,5.23c1.11,1.75,1.07,3.41-1.65,4.17
						c-7.54,2.11-14.63,6.06-22.85,5.34c-0.44-0.04-0.93,0.53-1.63,0.96c9.12,7.79,17.89,2.36,26.54-0.77
						c1.02,4.5,0.68,6.89-3.86,7.86c-5.94,1.27-11.68,3.49-17.5,5.31c-0.12,0.41-0.24,0.82-0.37,1.23c1.62,0.72,3.28,2.1,4.85,1.99
						c2.39-0.16,4.72-1.35,7.08-2.08c3.1-0.96,6.2-1.9,9.3-2.85c0.42,0.6,0.84,1.2,1.25,1.81c-2.05,2.5-4.1,5.01-6.4,7.83
						c1.55,0,2.83,0,4.18,0c1.72,4.92-2.98,5.62-4.77,8.09c-0.99,1.38-1.68,2.98-2.5,4.48c1.26,0.67,2.44,1.59,3.78,1.95
						c3.49,0.94,4.8,3.26,2.62,6.07c-1.42,1.82-3.85,2.89-5.89,4.2c-1.11,0.71-2.36,1.22-3.55,1.82c0.12,0.42,0.23,0.84,0.35,1.26
						c1.79,0.12,3.7-0.09,5.34,0.47c1.57,0.54,3.76,1.67,4.06,2.93c0.36,1.51-0.47,4.09-1.7,5.02c-2.27,1.72-5.14,2.76-7.88,3.75
						c-2.14,0.78-4.68,1.83-6.64,1.29c-1.38-0.38-2.07-3.23-3.06-4.95c-3.02,4.15-2.88,9.13,0.38,12.57
						c2.64,2.78,6.25,2.67,10.96-0.55c6.89-4.7,13.77-9.43,20.55-14.29c2.57-1.84,4.86-4.06,7.28-6.1
						c-0.24-0.32-0.48-0.64-0.73-0.96c-5.22,2.47-10.43,4.93-15.97,7.55c-0.93-4.33-0.23-6.98,3.54-8.55
						c3.69-1.54,7.22-3.47,10.77-5.21C527.39,121.34,523.35,123.22,519.78,123.39z M832.62,265.5c0.05,0.77-0.12,1.6,0.17,2.24
						c3.36,7.41,6.88,14.74,10.16,22.18c3.34,7.57,7.73,10.61,15.86,9.69c6.61-0.75,13.1-2.67,19.72-3.21
						c7.25-0.59,14.58-0.04,21.87-0.31c1.48-0.05,2.91-1.54,4.37-2.37c-1.33-0.96-2.57-2.56-4.02-2.78
						c-5.35-0.81-10.78-1.16-16.55-1.73c0.5-8.93-2.01-18.64,2.07-28.12c2.45-5.7,0.92-7.51-5.38-7.62
						c-3.88-0.07-7.76-0.01-12.1-0.01c3.14-5.26,8.37-5.81,13.24-7.03c2.68-0.67,6.86,0.37,6.93-3.54c0.02-1.3-4.33-2.74-6.74-4
						c-2.22-1.16-5.55-1.57-6.58-3.35c-1.88-3.28-4.44-3.99-7.58-4.24c-3.38-0.26-5.02,1.42-3.44,4.46c1.8,3.49,0.42,5.4-2.47,6.58
						c-3.53,1.45-7.23,2.49-10.9,3.56c-1.49,0.43-3.09,0.45-5.19,0.72c4.55,6.94,9.92,9.69,16.57,7.2c-0.14,2.78-1.1,5.64-0.12,7.47
						c0.7,1.29,3.99,1.44,6.16,1.59c1.06,0.07,2.17-1.37,3.31-1.47c1.13-0.09,3.27,0.5,3.35,1.05c0.95,6.14,1.58,12.33,2.36,18.99
						c-3.5-0.23-5.59-0.36-7.27-0.47c0.68-2.17,1.32-4.19,1.95-6.2c-3.01-0.75-6.02-1.49-9.86-2.45c2.16,4.28,2.62,7.04-2.45,7.66
						c-0.93-5.43-1.83-10.7-2.73-15.97c-0.63,0.02-1.26,0.03-1.89,0.05c-1.13,5.18-2.61,10.32-3.18,15.56
						c-0.18,1.64,1.74,4.67,3.28,5.13c4.12,1.23,9.03,2.88,12.74,1.67c5.77-1.88,8.48,0.7,12.52,4.94
						c-9.37,1.15-17.55,4.37-26.34,2.48c-3.95-0.85-6.01-3.26-6.17-7.48c-0.14-3.56-1.13-7.09-1.14-10.64
						C847.12,267.25,841.63,266.06,832.62,265.5z M756.29,295.86c4.87,3.21,9.14,6.5,13.84,8.95c2.66,1.39,4.88-1.01,4.11-3.99
						c-0.62-2.38-1.77-4.63-2.27-7.02c-1.19-5.66-2.21-11.36-3.1-17.07c-0.13-0.85,0.71-2.58,1.25-2.64c1-0.11,2.45,0.4,3.12,1.17
						c8.2,9.34,18.47,15.28,30.34,18.62c3.27,0.92,6.57,1.72,9.85,2.58c0.2-0.52,0.4-1.04,0.59-1.57
						c-4.88-2.46-9.76-4.94-14.66-7.38c-8.11-4.04-16.79-7.23-21.02-16.38c-1.2-2.59-3.52-4.64-5.18-7.03
						c-0.93-1.35-2.58-3.68-2.16-4.22c1.38-1.77,3.41-3.82,5.45-4.14c5.44-0.86,11.01-0.84,16.53-1.27
						c1.21-0.09,2.64-0.27,3.51-0.97c1.07-0.86,2.13-2.27,2.26-3.53c0.06-0.63-1.88-1.9-3.06-2.14c-5.39-1.09-10.75-3.38-16.31-0.3
						c-1.12,0.62-2.88,0.09-3.31,0.09c-1.4-4.72-1.65-9.39-4-12.44c-2.45-3.17-6.79-5.35-11.49-3.12c1.32,1.74,3.06,3.16,3.63,4.95
						c1.03,3.23,2.73,7.2-1.31,9.47c-4.12,2.32-8.61,4.13-13.11,5.64c-4.47,1.5-9.16,2.34-13.76,3.48
						c-0.25,0.42-0.49,0.84-0.74,1.26c2.58,2.08,4.88,5,7.83,6.01c3.06,1.04,6.76,0.23,10.74,0.23
						c-2.84,12.07-10.71,19.76-15.93,29.03c10.27-5.39,16.42-15.32,24.97-23.85c0.81,6.84,1.49,12.47,2.15,18.1
						c0.9,7.69,0.9,7.69-6.81,8.13C757.97,294.55,757.74,294.85,756.29,295.86z M537.56,150.58c5.77-0.55,9.07-4.18,11.31-8.29
						c5.49-10.07,11.3-20.13,15.24-30.83c2.29-6.22,5.47-9.33,11.35-11.05c5.4-1.58,6.8-0.78,6.7,4.84
						c-0.23,12.22-5.07,22.95-10.71,33.47c-2.73,5.09-5.04,6.45-10.83,5.84c-1.65-0.17-3.33-0.03-5.54-0.03
						c6.95,9.25,14.2,9.76,20.38,3.24c2.89-3.05,5.14-6.95,6.85-10.82c3.35-7.57,6.27-15.33,9.07-23.12
						c2.04-5.69,1.01-11.06-3.55-15.24c-3.35-3.07-6.97-5.75-12.04-3.05c-1.64,0.87-3.76,0.85-5.96,1.3
						c0.52-4.89,0.88-9.32,1.48-13.72c0.66-4.8-1.88-7.63-5.73-9.57c-0.89-0.45-2.21-0.04-3.34-0.03c0.12,1.01,0.19,2.04,0.36,3.04
						c0.56,3.36,1.66,6.73,1.58,10.07c-0.07,2.63-1.84,5.18-2.39,7.86c-0.76,3.69-1.64,6.94-6.19,7.48
						c-1.5,0.18-2.98,0.75-4.39,1.33c-0.89,0.37-2.23,1.03-2.29,1.66c-0.07,0.83,0.72,2.21,1.49,2.54c1.77,0.77,3.76,1.05,6.31,1.7
						C551.74,123.64,546.18,137.72,537.56,150.58z M908.17,94.64c0.11-0.68,0.22-1.35,0.32-2.03c-2.35-1.58-4.54-3.52-7.08-4.68
						c-6.4-2.91-12.44,0.68-18.61,1.61c-3.25,0.49-6.41,1.54-9.81,2.4c0.72-9.41,4.84-13.89,12.96-14.78c2.47-0.27,5-0.32,7.4-0.87
						c1.74-0.4,3.32-1.47,4.97-2.25c-1.44-1.41-2.75-3.82-4.36-4.04c-4.25-0.57-8.62-0.19-13.18-0.19c0.2-0.92,0.72-2.81,1.01-4.74
						c0.33-2.15,0.83-4.37,0.55-6.47c-0.25-1.95-0.91-4.43-2.3-5.52c-4.15-3.26-8.57-2.53-12.92,1.67c4.33,1.01,6.41,3.37,5.55,7.97
						c-0.69,3.64-0.44,7.47-1.3,11.05c-0.72,2.95-7.93,5.49-10.72,4.68c0.51-3.64,1.81-7.31,1.31-10.71
						c-0.61-4.11-3.64-6.73-8.58-6.56c2.87,7.04,1.92,12.27-3.15,18.31c-1.98,2.36-3.18,5.28-0.88,7.47
						c1.28,1.22,4.34,0.89,6.55,0.71c1.44-0.12,2.78-1.27,4.2-1.89c3.19-1.38,6.39-2.72,9.82-4.17c0.45,7.62-0.89,11.93-5.11,13.24
						c-7.98,2.48-14.88,9.59-24.47,5.31c1.15,6.97,3.21,9.26,9.13,8.66c3.3-0.34,6.52-2.36,9.56-4.01
						c13.06-7.07,26.65-11.4,41.79-9.24C903.17,95.89,905.71,94.97,908.17,94.64z M56.62,102.77c-0.11-2.33-0.04-4.18-0.31-5.97
						c-1.17-7.8,0.56-13.61,9.53-15.12c1.05-0.18,1.85-1.85,2.77-2.84c-1.27-0.72-2.53-1.99-3.82-2.03
						c-2.37-0.07-4.77,0.59-7.95,1.06c0.43-4.88,0.78-9.16,1.2-13.43c0.51-5.18-2.76-8.74-7.77-7.57c-1.71,0.4-4.14,3.31-4.02,4.91
						c0.35,4.62,1.52,9.25,2.95,13.69c1.58,4.9-0.96,6.49-4.92,7.37c-4.62,1.03-9.24,2.01-14.62,3.18c1.15,1.03,1.95,2.08,3.01,2.65
						c4.33,2.31,8.81,2.45,13.52,0.98c1.16-0.36,3.95,0.63,3.94,0.97c-0.11,6.62,1.27,14.05-1.3,19.64
						c-3.56,7.74-9.99,14.22-15.48,21c-2.3,2.84-2.43,5.18,0.03,7.65c4.77,4.79,9.53,9.6,14.5,14.18c2.87,2.65,5.15,2.06,6.72-1.61
						c0.89-2.07,1.61-4.38,1.71-6.6c0.36-8.22,0.48-16.45,0.59-24.68c0.09-5.95,0.52-11.75,4.7-16.53c0.27-0.31-0.02-1.11-0.07-2.03
						C59.94,102.01,58.67,102.3,56.62,102.77z M704.89,257.45c-0.07-0.66-0.14-1.32-0.21-1.98c-3.73-1.21-7.39-2.74-11.2-3.55
						c-3.38-0.73-7.63-2.04-10.28-0.7c-7.76,3.93-14.56,1.85-21.14-1.88c-3.63-2.06-5.13-0.98-6.22,2.25
						c-1.51,4.49-2.86,9.03-4.32,13.54c-0.68,2.12-1.45,4.21-2.27,6.58c10.36-1.73,13.79-3.94,18.95-11.3
						c0.81-1.16,2.75-2.37,3.98-2.21c1.79,0.24,4.95,1.93,4.85,2.63c-0.63,4.47-1.54,9.04-3.37,13.12
						c-0.61,1.35-4.18,1.45-6.44,1.96c-1.2,0.27-2.51,0-3.7,0.29c-0.8,0.2-1.84,0.82-2.05,1.48c-0.18,0.54,0.52,1.73,1.15,2.11
						c7.56,4.51,14.99,9.28,22.89,13.1c2.08,1,5.62-1.02,8.49-1.66c-0.6-2.31-0.56-5.16-1.95-6.8c-2.56-3.02-5.96-5.32-8.83-7.76
						C687.28,267.08,695.45,261.59,704.89,257.45z M808.24,111.67c5.04-0.98,6.27,0.93,6.15,5.57c-0.07,2.43,1.62,5.07,2.99,7.33
						c1.26,2.09,3.03,3.93,4.81,5.64c2.04,1.97,2.13,3.7-0.13,5.38c-2.58,1.92-5.33,3.63-7.83,5.65c-0.96,0.77-1.93,2.14-1.96,3.26
						c-0.02,0.82,1.46,2.31,2.34,2.36c1.14,0.06,2.53-0.81,3.47-1.65c1.47-1.31,2.4-3.38,4.02-4.34c6.22-3.7,12.89-4.01,19.63-1.55
						c10.33,3.76,20.73,7.35,30.88,11.53c14.22,5.87,27.34,3.1,40.29-4.61c-6.04-1.8-12.15-3.09-18.32-3.74
						c-7.86-0.82-15.88-0.5-23.65-1.77c-10.67-1.75-21.1-4.99-31.77-6.71c-6.64-1.07-12.14-2.7-16.49-8.39
						c-3.35-4.38-4.17-10.18-0.14-14.03c1.88-1.8,4.32-3.07,5.99-5.02c1.17-1.36,2.37-3.8,1.88-5.16c-0.47-1.3-3.03-2.25-4.8-2.55
						c-1.35-0.23-3.22,0.43-4.33,1.35C816.81,103.91,812.57,107.84,808.24,111.67z M971.38,257.12c5.86-0.73,10.58-1.25,15.26-1.98
						c0.81-0.13,1.49-1.13,2.23-1.73c-0.82-0.54-1.62-1.5-2.46-1.54c-2.91-0.15-5.87-0.24-8.75,0.11
						c-8.44,1.01-8.57,0.65-10.63-8.05c-0.17-0.74-0.03-1.55-0.09-2.32c-0.41-5.07-2.5-7.05-8.78-7.66
						c0.75,3.79,1.46,7.36,2.23,11.3c-3.72-0.12-6.27-0.07-5.14-4.62c1.26-5.11-1.65-7.67-7.72-6.99c0.36,3.03,0.72,6.07,1.1,9.11
						c0.36,2.92-0.65,4.66-3.77,5.28c-2.33,0.47-4.54,1.55-6.8,2.36c-0.02,0.4-0.03,0.81-0.05,1.21c2.11,0.73,4.26,1.36,6.31,2.24
						c1.25,0.54,2.33,1.47,3.48,2.22c-0.83,1.14-1.41,2.83-2.53,3.34c-5.48,2.5-11.12,4.64-16.67,6.99
						c-1.53,0.65-2.94,1.59-4.41,2.39c0.17,0.59,0.33,1.17,0.5,1.76c2.14-0.22,4.45-0.01,6.38-0.75c8.21-3.15,16.26-6.69,24.45-9.88
						c8.93-3.48,11.13-2.88,15.71,3.62c6.54,9.28,6.44,9.2-1.37,18.04c-1.06,1.2-1.25,3.99-0.65,5.61c0.52,1.42,2.66,2.99,4.16,3.07
						c1.15,0.06,2.52-2.01,3.6-3.29c0.57-0.67,0.63-1.74,1.09-2.54c0.72-1.27,1.58-2.45,2.39-3.67c1.16,1.07,2.61,1.96,3.42,3.25
						c3.36,5.31,6.35,10.86,9.86,16.07c0.97,1.44,3.23,2.02,4.9,3c0.52-0.6,1.04-1.21,1.56-1.81c-3.7-5.1-6.86-10.73-11.22-15.19
						c-6.81-6.95-7.9-9.65-4.83-18.8c0.42-1.25-0.13-2.82-0.23-4.24c-1.55,0.33-3.19,0.46-4.63,1.05c-0.82,0.33-1.34,1.41-2.43,2.65
						C974.93,263.37,973.31,260.52,971.38,257.12z M139.82,117.46c-0.85,0.15-1.7,0.29-2.56,0.44c0,2.36-0.08,4.73,0.02,7.09
						c0.2,4.74-1.31,8.45-5.8,10.67c-6.38,3.14-12.91,3.38-19.3,0.49c-1.64-0.74-3.43-3.07-3.6-4.82c-0.8-8-1.57-16.08-1.37-24.1
						c0.3-12.39,2.33-24.53,6.84-36.26c0.83-2.17-0.69-6.12-2.42-8.16c-2.12-2.5-5.58-3.94-9.44-0.96c3.3,4.82,3.07,9.69,2.45,15.51
						c-1.88,17.68-2.28,35.53-2.7,53.33c-0.07,2.87,2.07,6.64,4.37,8.58c10.3,8.66,22.24,8.09,34.24,4.45
						c3.17-0.96,4.72-3.96,4.11-7.51c-0.42-2.44-0.87-4.89-1.51-7.28C142.13,125.08,140.94,121.28,139.82,117.46z M750.65,142.3
						c0.44,1.27,0.46,1.98,0.83,2.31c4.52,4.15,8.97,8.4,13.78,12.2c0.73,0.58,4.16-0.61,4.67-1.73c1.35-3,2.33-6.38,2.43-9.65
						c0.12-3.8-1.21-7.62-1.31-11.44c-0.44-17.5-0.77-35.01-0.86-52.52c-0.02-3.13,1.11-6.32,2.02-9.39
						c2.39-7.98,0.29-13.46-7.26-15.74c-2.62-0.79-3.38,0.08-3,2.73c0.61,4.26,1.25,8.55,1.36,12.84
						c0.42,15.81,0.58,31.62,0.94,47.42c0.15,6.51,0.73,13.01,0.8,19.51c0.06,6-1.72,7.18-7.38,5.49
						C755.54,143.71,753.39,143.1,750.65,142.3z M377.98,79.47c-0.02,8.86-4.35,14.89-9.49,20.3c-5.23,5.51-10.96,10.55-16.47,15.8
						c0.14,0.33,0.28,0.65,0.43,0.98c5.1-2.32,10.2-4.64,16.44-7.48c-0.9,4.53-1.59,7.8-2.19,11.09
						c-1.18,6.44-2.24,12.94,1.11,19.03c0.75,1.37,2.89,3.09,4.03,2.86c1.56-0.31,3.26-2.09,4.04-3.67c1.35-2.7,2.07-5.72,2.98-8.62
						c0.71-2.26,1.31-4.55,2.1-7.32c-2.49,0.62-4.2,1.05-6.6,1.65c-0.59-4.87-1.02-9.29-1.68-13.69c-0.48-3.18,0.81-5.28,3.29-7.08
						c2.48-1.8,4.93-3.71,7.1-5.87c2.94-2.91,3.2-6.68,2.13-10.41C384.18,83.41,381.92,80.68,377.98,79.47z M430.7,96.65
						c2.78,12.16,1.8,24.18-0.59,36.01c-2.03,10.08-7.67,17.66-17.9,21.12c-1.42,0.48-2.7,1.37-4.05,2.07
						c0.11,0.43,0.23,0.85,0.34,1.28c3.74,0,7.58,0.58,11.19-0.11c11.02-2.1,18.69-5.53,20.46-19.34
						c1.65-12.82,0.07-25.27-3.31-37.58C436.07,97.23,434.35,95.09,430.7,96.65z M73.23,139.63c7.22-1.08,10.64-6.05,12.49-11.79
						c2.41-7.45,4.14-15.15,5.68-22.84c1.54-7.71,2.44-15.54,3.7-23.31c0.63-3.92-1.85-6.56-4.63-7.73
						c-2.1-0.88-5.18,0.38-7.74,1.04c-0.29,0.08-0.16,3.46,0.02,3.48c4.03,0.52,3.28,3.58,3.27,6.08
						c-0.01,4.34-0.63,8.72-0.26,13.02c0.74,8.71-6.47,11.12-11.44,15.4c-2.93,2.53-5.95,2.98-9.41,0.59
						c-1.62,4.82,0.59,7.58,4.01,9.46c3.56,1.96,4.83-1.14,6.44-3.4c2.39-3.36,4.88-6.65,7.33-9.97c0.42,0.25,0.84,0.49,1.26,0.74
						C82.2,120.71,78.97,130.52,73.23,139.63z M394.97,90.97c0.38,2.78,0.31,4.27,0.8,5.53c1.95,5.02,8.29,7.03,14.21,4.51
						c2.12-0.9,4.02-2.34,6.17-3.17c12.67-4.91,25.63-6.96,39.1-3.73c1.5,0.36,3.1,0.8,4.57,0.62c1.22-0.15,2.91-0.92,3.33-1.88
						c0.41-0.94-0.12-2.91-0.94-3.65c-3.6-3.26-7.72-6.23-12.8-5.44c-10.67,1.65-21.26,3.89-31.89,5.79
						C410.35,90.81,403.84,97.38,394.97,90.97z M596.73,241.8c0-3.12,0.81-7.16-0.16-7.64c-2.58-1.29-5.92-1.05-8.72-1.38
						c0,4.93,1.44,9.81-0.38,12.06c-2.12,2.62-7.09,2.95-10.97,4.33c1.12,4.8,5.62,1.99,8.2,3.71
						c-1.61,13.09-9.28,23.75-14.61,35.43c2.4-1.51,4.58-3.13,5.82-5.29c4.66-8.1,9.11-16.33,13.44-24.62
						c2.97-5.68,6.52-10.25,13.72-10.37c1.29-0.02,2.56-1.3,3.83-1.99c-0.09-0.43-0.18-0.87-0.27-1.3
						C603.05,243.67,599.45,242.61,596.73,241.8z M698.67,134.86c-0.9,0.15-1.79,0.3-2.69,0.45c0.32,4.6-0.03,9.38,1.2,13.73
						c0.8,2.84,3.58,5.44,7.73,3.47c1.43-0.68,3.31-0.47,4.98-0.53c4.96-0.18,9.94-0.11,14.87-0.55c1.31-0.12,3.7-2.16,3.55-2.56
						c-1.63-4.34,1.64-6.77,3.66-9.38c3.1-4,0.36-7-1.62-9.49c-1.59-2-5.28-4.35-7.14-3.75c-7.42,2.39-14.49,5.87-21.68,8.98
						c-0.11,0.05-0.01,0.55-0.01,1.27c8.8,1.84,14.93-5.75,23.41-6.79c0.1,6.05-2.44,10.63-6.01,15c-3.16,3.87-7.61,5.88-11.78,4.74
						c-2.53-0.69-4.17-5.15-5.89-8.11C700.1,139.36,699.51,137.04,698.67,134.86z M677.4,92.59c0.24,0.32,0.47,0.65,0.71,0.97
						c3.08-1.59,6.25-3.04,9.23-4.8c8.39-4.96,16.91-10.19,22.19-18.41c3.04-4.73,5.34-3.76,8.91-2.17c2.95,1.32,5.9,2.72,8.98,3.63
						c1.2,0.35,2.77-0.53,4.17-0.85c-0.39-1.26-0.5-2.73-1.23-3.76c-3.24-4.55-8.01-4.02-12.63-3.29c-3.59,0.57-5.99,0.36-7.46-3.87
						c-0.83-2.39-2.88-5.71-5.88-4.98c-0.65,3.18-0.78,5.45-1.58,7.44c-4.23,10.63-13.2,17.57-20.49,25.81
						C680.9,89.93,679.05,91.17,677.4,92.59z M700.5,121.97c7.09,0.85,13.96,0.66,20.7-1.11c0.87-0.23,1.41-2.81,1.57-4.35
						c0.14-1.37-1.03-3.01-0.63-4.19c1.05-3.05,2.44-6.03,4.11-8.79c1.35-2.24,2.65-4.03,0.59-6.61c-2.6-3.26-4.7-7.72-9.76-6.36
						c-8.3,2.23-16.42,5.14-25.74,8.13c10.88,5.51,17.87-4.81,27.93-4.31c-1.21,6.31-0.84,13.11-3.87,17.67
						C712.49,116.42,706.07,118.47,700.5,121.97z M590.49,267.45c2.22,1.53,3.59,2.21,4.59,3.24c0.91,0.93,2.3,2.82,1.98,3.29
						c-1.45,2.16-3.41,3.97-5.21,5.9c-1,1.08-2.03,2.14-3.05,3.2c1.43,0.89,2.78,2.33,4.31,2.55c2.54,0.37,5.2-0.18,7.8-0.09
						c5.56,0.18,11.11,0.7,16.67,0.7c1.59,0,3.18-1.29,4.76-2c-1.15-1.2-2.1-2.98-3.5-3.47c-2.88-1-5.98-1.44-9.02-1.88
						c-2.55-0.36-3.98-0.89-4.21-4.16c-0.26-3.59-0.44-6.15,3.78-7.22c0.9-0.23,1.41-2,2.1-3.06c-1.01-0.56-1.99-1.5-3.05-1.61
						C602.42,262.25,597.04,264.31,590.49,267.45z M886.33,121.47c0.6-0.78,1.43-2.02,2.41-3.12c2.56-2.85,5.33-5.53,7.69-8.53
						c0.78-0.99,1.18-3.06,0.68-4.13c-1.62-3.41-7.74-5.42-10.97-3.48c-4.67,2.81-9.04,6.1-14.49,9.84c2.98,0,4.94,0.3,6.77-0.06
						c3.45-0.69,4.22,0.86,3.7,3.79c-1.04,5.9-3.72,10.63-9.81,13.28c1.61,0.82,3.12,1.37,4.62,1.33c2.47-0.06,5.03-0.19,7.37-0.88
						c2.46-0.73,4.72-2.15,7.07-3.26C889.83,124.79,888.29,123.33,886.33,121.47z M312.66,95.79c-5.45,0.09-10.31,4.57-10.19,9.36
						c0.12,4.5,5.67,9.31,10.55,9.15c4.74-0.16,9.85-5.15,9.74-9.53C322.65,100.22,317.58,95.71,312.66,95.79z M633.17,95.79
						c-5.18,0.08-9.71,4.39-9.7,9.21c0.01,4.59,4.9,9.28,9.69,9.29c5.06,0.01,10.18-4.69,10.2-9.36
						C643.38,100.04,638.55,95.7,633.17,95.79z M112.69,111.71c0.19,0.52,0.38,1.05,0.57,1.57c3.32-0.48,6.77-0.55,9.93-1.55
						c3.62-1.15,9.07-1.28,9.02-6.43c-0.05-5.22-5.18-5.2-9.08-6.06c-1.07-0.24-2.58-1.08-2.77-1.91c-0.2-0.86,0.79-2.16,1.54-3.04
						c1.48-1.75,3.5-3.12,4.63-5.05c1.11-1.89,2.6-5.17,1.79-6.26c-1.87-2.51-3.38-6.64-7.32-5.8c-1.16,6.26-2.51,12.05-3.16,17.91
						c-0.24,2.15,0.75,4.79,2,6.67c2.35,3.56,2.2,5.34-1.61,7.26C116.39,109.96,114.53,110.82,112.69,111.71z M691.32,105.48
						c2.8,18.09-8.03,30.46-16.84,43.93c1.53-0.07,3.2-0.15,4.04-1.03c3.99-4.18,8.44-8.16,11.41-13.01
						c3.57-5.82,5.92-12.4,8.58-18.75C700.48,111.89,697.43,106.83,691.32,105.48z M407.44,217.57c-0.34-0.42-0.68-0.83-1.02-1.25
						c-3.18,1.34-6.36,2.68-9.66,4.07c1.22,2.1,1.96,3.37,2.72,4.67c-2.59,1.05-4.83,1.95-7.21,2.92c-0.43-3.91-0.79-7.21-1.31-11.9
						c-2.85,3.44-5.55,5.92-7.11,8.98c-0.64,1.25,1.19,3.75,1.88,5.63c9.41-2,9.41-2,11.53,4.47c1-0.89,2.02-1.79,3.55-3.15
						c0.57,2.31,0.96,3.87,1.34,5.43c7.09-1.78,9.94-7.29,6.46-13.07c-0.94,2.7-2.13,4.93-4.68,3.15
						C405.24,223.8,406.34,220.68,407.44,217.57z M936.14,273.22c0.93,4.73,0.88,8.42,2.45,11.18c1.23,2.15,4.49,3.14,6.85,4.64
						c0.68-1.78,1.35-3.56,2.05-5.33c0.16-0.42,0.39-0.81,0.65-1.33c7.29,0.13,10.56-4.64,12.91-10.59c1.08-2.73-0.3-4.86-2.56-4.79
						c-4.37,0.14-8.72,1.26-13.03,2.15c-0.12,0.02-0.2,2.67,0.4,3.1c0.82,0.59,2.35,0.11,3.54,0.3c1.22,0.19,2.4,0.64,3.6,0.97
						c-0.65,1.4-0.99,3.14-2.04,4.12c-1.49,1.41-3.5,2.26-5.19,3.3C942.83,278.59,940,276.32,936.14,273.22z M535.92,276.88
						c0.41,0.3,0.82,0.59,1.24,0.89c2.17-2.31,4.72-4.37,6.43-6.98c6.12-9.36,12-18.88,17.83-28.41c0.57-0.93,0.74-3.13,0.2-3.52
						c-1.79-1.3-3.95-2.18-6.08-2.85c-0.25-0.08-1.6,2.01-1.78,3.19c-1.15,7.55-5.09,13.94-8.48,20.54
						C542.31,265.53,539.05,271.17,535.92,276.88z M409.19,69.59c0.01,0.01,0.14,0.34,0.38,0.48c6.54,3.6,30,1.27,35.44-3.75
						c0.61-0.57,0.35-3.3-0.42-3.94c-3.43-2.85-7.59-2.54-11.5-1.24C425.11,63.79,417.22,66.73,409.19,69.59z M380.84,53.92
						c-0.88,13.31-10.68,20.18-18.37,28.76c7.7-3.19,14.91-6.92,21.82-11.13c3.58-2.18,4.25-6.13,3.07-9.93
						C386.38,58.41,385.54,54.66,380.84,53.92z M322.64,226.71c-3.18,1.39-5.71,2.49-8.24,3.6c0.13,0.43,0.25,0.86,0.38,1.29
						c2.46-0.44,4.93-0.88,7.39-1.32c0.28,0.4,0.55,0.79,0.83,1.19c-1.48,0.81-2.96,1.62-4.18,2.29c1.1,1.45,1.88,2.33,2.5,3.3
						c0.81,1.26,1.56,3.74,2.22,3.7c1.77-0.11,3.48-1.27,5.21-2.02c-0.14-0.33-0.28-0.66-0.42-0.99c-1.58,0.22-3.17,0.44-4.77,0.66
						c-0.55-6.39-0.11-7.05,5.71-9.62c1.04,0.93,2.04,2.47,2.73,2.35c5.96-1.12-1.88-5.12,2.04-6.8c-5.98-1.39-5.98-1.39-5.07-7.07
						c-1.77-0.59-3.58-1.19-5.02-1.67c-1.28,3.52-2.43,6.68-3.72,10.21C320.11,225.76,321.17,226.16,322.64,226.71z M499.62,217.22
						c-1.24,5.15-0.49,8.99,4.87,9.4c-3.99,1.13-7.88,2.24-11.78,3.35c5.2,2.73,10.07-3.15,15.55,0.28c-2,1.34-3.93,2.05-4.93,3.43
						c-2.83,3.89-2.68,4-5.06-0.25c-1.96,2.11-2.32,4.53,0,5.89c1.36,0.79,4.9,0.45,5.55-0.59c2.42-3.86,4.96-3.91,8.47-1.85
						c0.93,0.55,2.35,0.29,3.54,0.41c0.11-0.45,0.22-0.9,0.33-1.35c-2.24-1.05-4.48-2.09-7.27-3.4c1.89-2.16,3.52-4.03,5.34-6.12
						c-1.93-0.36-4.02-0.75-6.28-1.17c0.29-1.86,0.51-3.31,0.95-6.2c-2.68,1.57-4.39,2.57-5.67,3.32
						C502.02,220.63,500.82,218.93,499.62,217.22z M748.69,89.97c-2.1-2.51-1.06-7.2-5.34-6.79c-0.9,5.88-1.88,11.3-2.48,16.75
						c-0.25,2.23,0.01,4.65,0.65,6.8c0.28,0.95,2.02,1.69,3.23,2.05c0.51,0.15,1.78-0.76,2.03-1.44c2.05-5.59,3.94-11.23,5.84-16.86
						c0.12-0.36-0.12-0.85-0.23-1.49C751.1,89.34,749.97,89.64,748.69,89.97z M212.48,63.21c4.23,3.25,4.15,7.37,0.15,12.06
						c-1.66,1.95-2.86,4.29-4.28,6.45c0.58,0.5,1.15,1,1.73,1.5c4.19-3.85,8.29-7.8,12.58-11.52c4.28-3.71,1.03-6.3-1.38-8.56
						C218.62,60.64,215.42,59.76,212.48,63.21z M814.69,83.34c3.08-0.89,7.34-1.97,11.48-3.39c2.26-0.77,4.04-2.26,1.41-4.68
						c-4.77-4.37-10.96-3.67-15.7-4.99C812.85,74.81,813.78,79.1,814.69,83.34z M553.05,268.72c0.28,6.69,2.43,13.32-1.93,19.39
						c-0.32,0.45,1.89,3.16,3.36,4.22c0.52,0.37,3.29-0.9,3.41-1.68c0.89-5.47,1.72-10.99,1.83-16.52
						C559.81,270.34,557.05,268.65,553.05,268.72z M857.19,110.03c0.63,7.27,0.47,14.11,4.09,20.28c0.36,0.62,1.83,1.29,2.22,1.04
						c0.91-0.57,2.01-1.65,2.09-2.6c0.3-3.52,0.49-7.1,0.2-10.61C865.41,113.59,862.38,111.27,857.19,110.03z M488.89,100.69
						c1.7,4.28,2.52,7.24,4.01,9.83c1.62,2.81,3.52,5.64,5.93,7.76c2.07,1.82,4.55,0.32,3.46-2.19c-1.96-4.48-4.76-8.65-7.68-12.61
						C493.6,102.11,491.22,101.76,488.89,100.69z M708.66,88.34c4.49-2.48,8.69-4.71,12.77-7.13c0.78-0.46,1.11-1.68,1.64-2.54
						c-0.99-0.53-2.18-1.71-2.93-1.48c-6.25,1.95-12.41,4.16-18.7,6.33C703.39,87.43,708.41,82.46,708.66,88.34z M252.9,63.49
						c4.02,3.93,6.05,9.36,12.49,8.78c1.13-0.1,2.82-0.14,3.21-0.81c0.45-0.79,0.05-2.39-0.48-3.36
						C265.71,63.65,260.38,61.9,252.9,63.49z M177.55,101.36c-0.58,0.08-1.16,0.15-1.74,0.23c-0.83,5.84-1.45,11.75,0.76,17.48
						c0.49,1.27,2.7,1.88,4.11,2.79c0.57-1.44,1.88-3.06,1.58-4.3C180.95,112.1,179.17,106.75,177.55,101.36z M192.29,67
						c1.5,5.86,0.46,12.04,7.86,15.67c0.77-2.42,2.56-5.02,1.9-6.58C200.4,72.17,198.66,67.7,192.29,67z M68.94,85.96
						c0.84,4.19,1.53,7.6,2.25,11.19c2.3-0.52,4.7-0.91,6.99-1.63c1.28-0.4,3.46-1.56,3.38-2.02c-0.28-1.47-1.11-3.46-2.31-4.02
						C76.11,88,72.67,87.17,68.94,85.96z M174.54,74.8c0.41,1.94,0.49,4.16,1.37,5.99c1.34,2.78,3.15,5.36,5.04,7.82
						c0.25,0.33,2.97-0.4,3.09-0.95c0.69-3.14,0.93-6.39,1.14-8.15C181.19,77.74,177.89,76.27,174.54,74.8z M455.51,233.67
						c2.77,1.39,5.3,2.66,8.1,4.07c0.37-4.48,0.77-9.37,1.23-14.92c-2.77,1.15-5.49,2.29-8.72,3.63
						C460.86,229.88,456.16,231.42,455.51,233.67z M430.62,236.3c0.58,0.22,1.16,0.44,1.73,0.66c4.67,0.47,9.34,0.95,14.85,1.51
						c-2.35-2.51-4.81-4.04-5.57-6.18c-1.82-5.15-2.13-5.57-8.35-3.46c1.97,0.56,3.47,0.98,4.86,1.37
						C435.52,232.33,433.07,234.31,430.62,236.3z M375.1,235.33c-0.81-1.79-1.31-2.65-1.61-3.58c-0.5-1.55-1-3.12-1.28-4.72
						c-0.25-1.45,0.36-3.61-0.43-4.28c-0.95-0.81-2.96-0.39-5.27-0.56c4.44,4.9,0.77,6.65-3.16,9.17
						C367.62,232.8,370.87,233.9,375.1,235.33z M701.64,103.97c1.35,3.02,2.42,5.42,3.58,8.03c1.5-0.27,3.81-0.5,5.98-1.17
						c1.1-0.34,2.88-1.77,2.74-2.23c-0.38-1.25-1.43-2.93-2.53-3.21C708.35,104.6,705.11,104.42,701.64,103.97z M473.91,229.64
						c1.95-1.41,3.81-2.75,5.03-3.63c-1.76-2.74-3.28-5.09-4.78-7.43c-0.87,2.91-1.74,5.83-2.7,9.05
						C471.99,228.06,473.02,228.9,473.91,229.64z M467.17,236.71c5.06-0.48,10.12-0.97,16.16-1.54
						C478.03,232.07,472.51,232.53,467.17,236.71z M986.52,232.73c1.17,4.67,3.08,6.71,6.5,7.03c0.74,0.07,1.93-0.41,2.2-0.97
						c0.25-0.52-0.25-1.88-0.8-2.2C992.19,235.31,989.81,234.3,986.52,232.73z M871.67,270.68c0.13-0.53,0.27-1.05,0.4-1.58
						c-2.03-3.34-4.73-3.77-8.62-0.04C866.19,269.59,868.93,270.13,871.67,270.68z M338.22,239.43c0.38-0.7,0.76-1.4,1.14-2.1
						c-3.43-1.42-6.87-2.84-10.3-4.26c-0.29,0.67-0.58,1.33-0.87,2C331.53,236.52,334.87,237.98,338.22,239.43z M423.3,232.44
						c-0.83,0.09-1.66,0.18-2.48,0.27c0.11,1.89,0.23,3.78,0.34,5.66c0.81-0.13,2.33-0.23,2.33-0.39
						C423.56,236.14,423.4,234.29,423.3,232.44z M277.04,226.37c0.24,0.17,0.47,0.33,0.71,0.5c1.14-0.77,2.41-1.42,3.38-2.37
						c0.67-0.65,1.03-1.69,1.31-2.62c0.06-0.2-1.02-1.08-1.26-0.96c-0.91,0.43-1.92,0.97-2.47,1.77
						C277.95,223.77,277.58,225.13,277.04,226.37z"/>
					<path d="M231.66,53.62c8.51,2.56,10.56,5.47,10.36,13.53c-0.12,4.96-0.01,9.93,0.12,14.89c0.04,1.46,0.49,2.9,0.8,4.62
						c3.05-0.97,5.5-2.14,8.04-2.4c1.56-0.16,3.27,1.07,4.91,1.67c-1.06,1.28-1.85,3.13-3.21,3.74c-9.17,4.16-9.29,4.09-8.02,13.96
						c0.25,1.94,1.36,3.76,2.07,5.64c0.87-1.89,1.7-3.8,2.62-5.67c0.61-1.23,1.35-2.4,2.04-3.6c1.05,0.93,2.41,1.68,3.09,2.83
						c2.4,4.1,1.75,8.17-1.2,11.67c-4.69,5.58-5.23,7.52-1.87,13.89c2.35,4.46,5.09,8.73,7.96,12.87c1.05,1.51,2.97,2.41,4.49,3.59
						c1.07-1.72,2.16-3.43,3.18-5.18c0.3-0.51,0.4-1.14,1.1-3.26c1.3,2.95,2.47,4.66,2.78,6.53c0.66,3.97,1.02,8.01,1.24,12.04
						c0.21,3.97-2.25,5.61-5.6,3.41c-3.69-2.42-7.79-4.99-10.12-8.54c-4.59-7.01-8.26-14.65-11.94-22.22
						c-1.4-2.88-2.38-4.47-5.82-2.65c-1.88,0.99-4.22,1.11-6.36,1.62c-0.2-0.45-0.4-0.9-0.6-1.35c1.25-0.9,2.42-1.93,3.75-2.66
						c3.49-1.93,5.31-4.55,4.46-8.74c-0.86-4.26-1.46-8.56-2.21-12.84c-0.45-2.58-1.91-3.4-4.37-2.41
						c-0.72,0.29-1.51,0.81-2.19,0.69c-5.81-0.96-9.9,1.11-12.88,6.25c-3.52,6.08-9.88,8.89-15.88,11.52
						c-5.1,2.24-5,5.45-3.76,11.11c2.68-2.35,4.68-4.1,6.68-5.85c-0.15-0.45-0.31-0.91-0.46-1.36c2.51,1.03,5.1,1.91,7.5,3.16
						c0.91,0.47,1.97,1.84,1.89,2.69c-0.08,0.85-1.39,1.88-2.38,2.28c-3.45,1.37-6.94,2.72-10.53,3.64
						c-3.04,0.79-3.92,2.6-3.89,5.42c0.04,2.95,0.16,5.93-0.26,8.82c-0.22,1.48-1.54,2.8-2.36,4.19c-1.17-0.81-2.89-1.37-3.41-2.49
						c-1.51-3.23-2.54-6.68-4.01-10.74c-2.88,1.02-6.16,2.18-9.44,3.35c-1.3,0.47-2.63,1.41-3.9,1.33
						c-2.35-0.16-5.46-0.19-6.76-1.63c-1.35-1.5-0.93-4.59-1.41-7.84c8.86,3.19,15.46-0.93,22.36-2.73c1.4-0.37,2.71-3.1,3.01-4.92
						c0.18-1.1-1.8-2.45-2.54-3.83c-0.76-1.42-1.58-3-1.61-4.53c-0.01-0.93,1.47-1.85,2.21-2.84c1.03-1.38,1.99-2.81,2.98-4.21
						c-1.56-0.61-3.12-1.22-5.2-2.04c1.17-0.95,2.63-1.79,3.58-3.02c0.86-1.1,1.81-2.79,1.52-3.91c-0.22-0.85-2.28-1.46-3.61-1.74
						c-2.5-0.52-5.06-0.72-7.6-1.05c-0.04-0.72-0.07-1.43-0.11-2.15c10.58-3.2,21.09-6.66,31.8-9.35c1.98-0.5,4.98,1.87,7.08,3.48
						c1.69,1.3,3.09,5.12,3.99,4.92c3.85-0.84,7.56-2.56,11.07-4.42c0.82-0.43,1.06-2.72,0.91-4.08c-0.62-5.82-1.51-11.6-2.24-17.41
						C232.86,64.23,232.29,59.09,231.66,53.62z M211.09,101.7c0.76-1.95,2.14-4.77,2.95-7.75c0.69-2.55-0.84-3.98-3.38-3.25
						c-3.68,1.06-7.31,2.35-10.8,3.92c-0.91,0.41-1.21,2.18-1.78,3.32c1.08,0.52,2.1,1.22,3.24,1.52
						C204.26,100.24,207.25,100.84,211.09,101.7z M207.59,105.99c-3.27,2.18-8.25,2.37-9.52,7.48
						C204.11,113.93,205.79,109.84,207.59,105.99z"/>
					<path d="M519.78,123.39c3.57-0.17,7.61-2.06,10.37,3.46c-3.55,1.74-7.08,3.67-10.77,5.21c-3.77,1.57-4.47,4.22-3.54,8.55
						c5.54-2.62,10.75-5.09,15.97-7.55c0.24,0.32,0.48,0.64,0.73,0.96c-2.42,2.05-4.72,4.26-7.28,6.1
						c-6.78,4.86-13.66,9.59-20.55,14.29c-4.72,3.22-8.32,3.33-10.96,0.55c-3.27-3.44-3.4-8.42-0.38-12.57
						c0.98,1.72,1.68,4.57,3.06,4.95c1.95,0.54,4.49-0.51,6.64-1.29c2.74-0.99,5.61-2.03,7.88-3.75c1.22-0.93,2.06-3.51,1.7-5.02
						c-0.3-1.26-2.49-2.39-4.06-2.93c-1.64-0.56-3.55-0.35-5.34-0.47c-0.12-0.42-0.23-0.84-0.35-1.26c1.19-0.6,2.43-1.11,3.55-1.82
						c2.04-1.31,4.47-2.37,5.89-4.2c2.19-2.81,0.88-5.13-2.62-6.07c-1.34-0.36-2.52-1.28-3.78-1.95c0.82-1.5,1.51-3.1,2.5-4.48
						c1.79-2.48,6.49-3.18,4.77-8.09c-1.36,0-2.63,0-4.18,0c2.3-2.82,4.35-5.32,6.4-7.83c-0.42-0.6-0.84-1.2-1.25-1.81
						c-3.1,0.95-6.2,1.89-9.3,2.85c-2.36,0.73-4.68,1.92-7.08,2.08c-1.56,0.1-3.23-1.28-4.85-1.99c0.12-0.41,0.24-0.82,0.37-1.23
						c5.82-1.81,11.56-4.03,17.5-5.31c4.54-0.97,4.89-3.36,3.86-7.86c-8.65,3.13-17.42,8.56-26.54,0.77c0.7-0.43,1.19-1,1.63-0.96
						c8.21,0.71,15.31-3.23,22.85-5.34c2.72-0.76,2.76-2.42,1.65-4.17c-1.86-2.93-3.72-6.15-8.21-5.23
						c-0.92,0.19-1.95-0.21-4.29-0.52c4.33-2.35,7.73-3.77,10.61-5.89c1.97-1.45,3.13-3.96,4.83-5.82c0.97-1.06,2.44-2.6,3.47-2.46
						c2.04,0.29,4.18,1.28,5.83,2.56c3.26,2.54,2.69,5.44-1.26,6.9c-3.59,1.33-7.29,2.35-11.15,3.56c2.95,2.41,5.31,4.71,8.06,6.38
						c1.19,0.72,3.23,0.38,4.79,0.07c2.73-0.53,5.36-1.8,8.09-1.97c1.47-0.09,3.03,1.46,4.56,2.27c-1.05,1.09-1.9,2.62-3.18,3.18
						c-2.1,0.92-4.46,1.35-6.75,1.75c-4.23,0.74-6.19,3.03-5.43,8.11c1.7-0.27,3.42-0.42,5.07-0.83c7.45-1.82,14.56,1.55,17.48,8.53
						c0.45,1.07,0.67,2.7,0.17,3.61c-2.64,4.81-5.14,9.81-8.56,14.03c-1.4,1.73-4.97,1.77-7.59,2.42c-2.82,0.7-5.86,0.82-8.47,1.96
						c-1.55,0.67-2.45,2.82-3.64,4.3C519.03,122.56,519.41,122.97,519.78,123.39z M522.28,94.3c0.12,0.47,0.23,0.94,0.35,1.4
						c1.79,0,3.7-0.4,5.33,0.11c1.7,0.54,3.83,1.67,4.4,3.1c0.4,1-1.2,3.28-2.45,4.34c-1.85,1.56-4.41,2.29-6.25,3.86
						c-1.59,1.34-2.6,3.36-4.52,5.96c12.77-0.83,16.42-9.02,17.84-17.16c0.27-1.52-1.71-4.73-3.06-4.99
						C529.63,90.11,525.74,91.93,522.28,94.3z"/>
					<path d="M832.62,265.5c9.01,0.56,14.5,1.76,14.52,10.24c0.01,3.55,1.01,7.08,1.14,10.64c0.16,4.22,2.22,6.63,6.17,7.48
						c8.79,1.89,16.97-1.33,26.34-2.48c-4.04-4.23-6.76-6.82-12.52-4.94c-3.71,1.21-8.62-0.44-12.74-1.67
						c-1.54-0.46-3.46-3.48-3.28-5.13c0.57-5.24,2.05-10.38,3.18-15.56c0.63-0.02,1.26-0.03,1.89-0.05
						c0.9,5.27,1.8,10.53,2.73,15.97c5.06-0.62,4.61-3.38,2.45-7.66c3.84,0.95,6.85,1.7,9.86,2.45c-0.63,2.01-1.27,4.03-1.95,6.2
						c1.68,0.11,3.77,0.24,7.27,0.47c-0.78-6.66-1.41-12.85-2.36-18.99c-0.08-0.54-2.22-1.14-3.35-1.05
						c-1.14,0.09-2.25,1.54-3.31,1.47c-2.17-0.15-5.46-0.3-6.16-1.59c-0.98-1.83-0.03-4.69,0.12-7.47
						c-6.65,2.49-12.02-0.26-16.57-7.2c2.09-0.28,3.7-0.29,5.19-0.72c3.67-1.06,7.37-2.11,10.9-3.56c2.89-1.18,4.27-3.1,2.47-6.58
						c-1.57-3.04,0.07-4.72,3.44-4.46c3.15,0.25,5.7,0.96,7.58,4.24c1.02,1.78,4.35,2.2,6.58,3.35c2.41,1.26,6.76,2.7,6.74,4
						c-0.07,3.92-4.25,2.87-6.93,3.54c-4.87,1.22-10.1,1.77-13.24,7.03c4.34,0,8.22-0.06,12.1,0.01c6.3,0.11,7.83,1.92,5.38,7.62
						c-4.08,9.48-1.56,19.19-2.07,28.12c5.78,0.56,11.2,0.92,16.55,1.73c1.45,0.22,2.68,1.81,4.02,2.78
						c-1.46,0.83-2.89,2.31-4.37,2.37c-7.29,0.27-14.62-0.27-21.87,0.31c-6.62,0.53-13.11,2.46-19.72,3.21
						c-8.13,0.92-12.52-2.12-15.86-9.69c-3.29-7.44-6.81-14.78-10.16-22.18C832.51,267.1,832.67,266.27,832.62,265.5z"/>
					<path d="M756.29,295.86c1.45-1.01,1.69-1.31,1.94-1.32c7.71-0.44,7.71-0.44,6.81-8.13c-0.66-5.64-1.34-11.27-2.15-18.1
						c-8.54,8.53-14.7,18.46-24.97,23.85c5.22-9.27,13.09-16.96,15.93-29.03c-3.98,0-7.67,0.81-10.74-0.23
						c-2.95-1.01-5.25-3.93-7.83-6.01c0.25-0.42,0.49-0.84,0.74-1.26c4.59-1.13,9.29-1.98,13.76-3.48c4.5-1.51,8.98-3.31,13.11-5.64
						c4.04-2.27,2.34-6.25,1.31-9.47c-0.57-1.79-2.31-3.22-3.63-4.95c4.7-2.24,9.04-0.05,11.49,3.12c2.35,3.05,2.6,7.72,4,12.44
						c0.43,0,2.19,0.53,3.31-0.09c5.56-3.08,10.93-0.79,16.31,0.3c1.18,0.24,3.13,1.51,3.06,2.14c-0.13,1.27-1.19,2.67-2.26,3.53
						c-0.87,0.7-2.3,0.87-3.51,0.97c-5.51,0.43-11.09,0.41-16.53,1.27c-2.04,0.32-4.07,2.37-5.45,4.14
						c-0.42,0.54,1.23,2.87,2.16,4.22c1.66,2.4,3.99,4.45,5.18,7.03c4.23,9.15,12.91,12.34,21.02,16.38
						c4.9,2.44,9.77,4.92,14.66,7.38c-0.2,0.52-0.4,1.04-0.59,1.57c-3.29-0.86-6.59-1.66-9.85-2.58
						c-11.87-3.34-22.13-9.28-30.34-18.62c-0.68-0.77-2.12-1.28-3.12-1.17c-0.54,0.06-1.38,1.79-1.25,2.64
						c0.89,5.71,1.91,11.41,3.1,17.07c0.5,2.39,1.66,4.64,2.27,7.02c0.77,2.98-1.45,5.38-4.11,3.99
						C765.43,302.36,761.16,299.08,756.29,295.86z"/>
					<path d="M537.56,150.58c8.61-12.85,14.17-26.94,19.15-41.38c-2.55-0.65-4.53-0.93-6.31-1.7c-0.77-0.34-1.56-1.71-1.49-2.54
						c0.06-0.63,1.4-1.29,2.29-1.66c1.41-0.58,2.89-1.16,4.39-1.33c4.55-0.53,5.43-3.79,6.19-7.48c0.55-2.68,2.33-5.22,2.39-7.86
						c0.09-3.34-1.02-6.71-1.58-10.07c-0.17-1.01-0.24-2.03-0.36-3.04c1.12-0.01,2.45-0.42,3.34,0.03c3.85,1.95,6.39,4.77,5.73,9.57
						c-0.6,4.4-0.96,8.83-1.48,13.72c2.2-0.45,4.32-0.43,5.96-1.3c5.07-2.7,8.69-0.02,12.04,3.05c4.56,4.18,5.59,9.55,3.55,15.24
						c-2.8,7.79-5.72,15.55-9.07,23.12c-1.72,3.88-3.96,7.77-6.85,10.82c-6.18,6.52-13.42,6.01-20.38-3.24
						c2.21,0,3.9-0.15,5.54,0.03c5.8,0.61,8.1-0.75,10.83-5.84c5.63-10.51,10.48-21.25,10.71-33.47c0.1-5.62-1.3-6.42-6.7-4.84
						c-5.88,1.72-9.06,4.83-11.35,11.05c-3.95,10.7-9.75,20.76-15.24,30.83C546.64,146.4,543.33,150.03,537.56,150.58z"/>
					<path d="M908.17,94.64c-2.46,0.34-5,1.25-7.36,0.91c-15.14-2.16-28.72,2.17-41.79,9.24c-3.05,1.65-6.27,3.67-9.56,4.01
						c-5.92,0.61-7.98-1.69-9.13-8.66c9.58,4.28,16.49-2.83,24.47-5.31c4.22-1.31,5.56-5.62,5.11-13.24
						c-3.42,1.45-6.63,2.79-9.82,4.17c-1.42,0.62-2.76,1.77-4.2,1.89c-2.21,0.18-5.27,0.51-6.55-0.71c-2.3-2.19-1.1-5.11,0.88-7.47
						c5.07-6.03,6.03-11.27,3.15-18.31c4.94-0.17,7.97,2.45,8.58,6.56c0.51,3.4-0.79,7.07-1.31,10.71
						c2.79,0.81,10.01-1.73,10.72-4.68c0.87-3.58,0.62-7.41,1.3-11.05c0.87-4.6-1.21-6.96-5.55-7.97c4.35-4.2,8.77-4.93,12.92-1.67
						c1.39,1.09,2.05,3.58,2.3,5.52c0.27,2.1-0.23,4.32-0.55,6.47c-0.29,1.93-0.81,3.82-1.01,4.74c4.56,0,8.94-0.38,13.18,0.19
						c1.61,0.22,2.91,2.63,4.36,4.04c-1.65,0.77-3.23,1.85-4.97,2.25c-2.41,0.56-4.93,0.6-7.4,0.87
						c-8.12,0.89-12.24,5.37-12.96,14.78c3.4-0.85,6.56-1.91,9.81-2.4c6.17-0.93,12.21-4.51,18.61-1.61
						c2.54,1.15,4.73,3.09,7.08,4.68C908.39,93.29,908.28,93.96,908.17,94.64z"/>
					<path d="M56.62,102.77c2.05-0.47,3.32-0.76,4.9-1.12c0.05,0.91,0.34,1.72,0.07,2.03c-4.19,4.79-4.62,10.59-4.7,16.53
						c-0.12,8.23-0.23,16.46-0.59,24.68c-0.1,2.23-0.82,4.53-1.71,6.6c-1.58,3.67-3.85,4.26-6.72,1.61
						c-4.97-4.58-9.73-9.39-14.5-14.18c-2.46-2.47-2.33-4.8-0.03-7.65c5.49-6.78,11.92-13.26,15.48-21
						c2.57-5.59,1.19-13.02,1.3-19.64c0.01-0.34-2.78-1.33-3.94-0.97c-4.71,1.47-9.19,1.33-13.52-0.98
						c-1.06-0.57-1.86-1.62-3.01-2.65c5.38-1.17,10.01-2.15,14.62-3.18c3.96-0.88,6.5-2.47,4.92-7.37
						c-1.43-4.44-2.6-9.07-2.95-13.69c-0.12-1.6,2.31-4.51,4.02-4.91c5-1.18,8.27,2.39,7.77,7.57c-0.42,4.27-0.77,8.55-1.2,13.43
						c3.18-0.47,5.57-1.13,7.95-1.06c1.29,0.04,2.55,1.31,3.82,2.03c-0.92,0.98-1.71,2.66-2.77,2.84
						C56.86,83.18,55.13,89,56.3,96.79C56.57,98.59,56.5,100.43,56.62,102.77z M50.9,124.71c-0.62-0.29-1.25-0.58-1.87-0.88
						c-2.11,2.29-4.31,4.51-6.31,6.89c-4.96,5.88-3.35,9.93,4.93,11.36C48.73,136.29,49.81,130.5,50.9,124.71z"/>
					<path d="M704.89,257.45c-9.43,4.14-17.61,9.63-21.65,19.22c2.86,2.44,6.27,4.75,8.83,7.76c1.39,1.64,1.35,4.49,1.95,6.8
						c-2.87,0.64-6.42,2.66-8.49,1.66c-7.9-3.82-15.34-8.59-22.89-13.1c-0.63-0.37-1.33-1.57-1.15-2.11
						c0.22-0.66,1.26-1.29,2.05-1.48c1.18-0.29,2.5-0.03,3.7-0.29c2.26-0.5,5.83-0.6,6.44-1.96c1.83-4.08,2.74-8.65,3.37-13.12
						c0.1-0.7-3.06-2.39-4.85-2.63c-1.23-0.17-3.17,1.05-3.98,2.21c-5.16,7.36-8.59,9.57-18.95,11.3c0.82-2.36,1.58-4.46,2.27-6.58
						c1.45-4.51,2.8-9.05,4.32-13.54c1.09-3.23,2.59-4.31,6.22-2.25c6.58,3.73,13.38,5.81,21.14,1.88c2.65-1.34,6.9-0.02,10.28,0.7
						c3.81,0.82,7.47,2.34,11.2,3.55C704.75,256.12,704.82,256.78,704.89,257.45z"/>
					<path d="M808.24,111.67c4.32-3.83,8.57-7.76,13.03-11.44c1.1-0.91,2.98-1.57,4.33-1.35c1.78,0.3,4.33,1.25,4.8,2.55
						c0.49,1.35-0.71,3.79-1.88,5.16c-1.67,1.95-4.11,3.22-5.99,5.02c-4.02,3.85-3.2,9.65,0.14,14.03
						c4.35,5.69,9.84,7.32,16.49,8.39c10.67,1.72,21.1,4.96,31.77,6.71c7.77,1.27,15.79,0.95,23.65,1.77
						c6.18,0.64,12.28,1.94,18.32,3.74c-12.95,7.71-26.07,10.48-40.29,4.61c-10.15-4.19-20.55-7.78-30.88-11.53
						c-6.74-2.45-13.42-2.14-19.63,1.55c-1.62,0.96-2.55,3.03-4.02,4.34c-0.95,0.84-2.33,1.71-3.47,1.65
						c-0.87-0.04-2.36-1.54-2.34-2.36c0.03-1.12,1-2.48,1.96-3.26c2.5-2.02,5.25-3.72,7.83-5.65c2.26-1.68,2.17-3.41,0.13-5.38
						c-1.78-1.71-3.54-3.55-4.81-5.64c-1.37-2.26-3.06-4.9-2.99-7.33C814.52,112.6,813.28,110.7,808.24,111.67z"/>
					<path d="M971.38,257.12c1.93,3.4,3.55,6.26,5.45,9.62c1.09-1.23,1.61-2.31,2.43-2.65c1.45-0.59,3.08-0.72,4.63-1.05
						c0.1,1.42,0.65,2.99,0.23,4.24c-3.07,9.16-1.99,11.85,4.83,18.8c4.36,4.45,7.52,10.08,11.22,15.19
						c-0.52,0.6-1.04,1.21-1.56,1.81c-1.67-0.98-3.93-1.56-4.9-3c-3.5-5.21-6.5-10.75-9.86-16.07c-0.81-1.29-2.27-2.18-3.42-3.25
						c-0.8,1.22-1.66,2.41-2.39,3.67c-0.46,0.8-0.52,1.87-1.09,2.54c-1.08,1.28-2.45,3.35-3.6,3.29c-1.5-0.08-3.64-1.65-4.16-3.07
						c-0.59-1.62-0.41-4.4,0.65-5.61c7.81-8.84,7.91-8.76,1.37-18.04c-4.58-6.5-6.78-7.11-15.71-3.62
						c-8.19,3.19-16.24,6.74-24.45,9.88c-1.94,0.74-4.25,0.53-6.38,0.75c-0.17-0.59-0.33-1.17-0.5-1.76
						c1.47-0.81,2.87-1.74,4.41-2.39c5.55-2.35,11.19-4.5,16.67-6.99c1.12-0.51,1.7-2.2,2.53-3.34c-1.15-0.75-2.23-1.68-3.48-2.22
						c-2.05-0.88-4.2-1.51-6.31-2.24c0.02-0.4,0.03-0.81,0.05-1.21c2.26-0.81,4.47-1.9,6.8-2.36c3.12-0.62,4.13-2.36,3.77-5.28
						c-0.38-3.04-0.73-6.08-1.1-9.11c6.07-0.68,8.98,1.88,7.72,6.99c-1.12,4.55,1.42,4.5,5.14,4.62c-0.78-3.94-1.49-7.51-2.23-11.3
						c6.28,0.6,8.37,2.59,8.78,7.66c0.06,0.77-0.09,1.58,0.09,2.32c2.06,8.7,2.2,9.05,10.63,8.05c2.89-0.34,5.84-0.26,8.75-0.11
						c0.85,0.04,1.64,1,2.46,1.54c-0.74,0.6-1.42,1.61-2.23,1.73C981.96,255.86,977.24,256.38,971.38,257.12z M952.96,257.47
						c4.21-1.4,7.72-2.56,11.7-3.87c-1.58-2.14-2.39-3.23-3.3-4.46C957.78,250.71,953.05,250.57,952.96,257.47z"/>
					<path d="M139.82,117.46c1.12,3.82,2.31,7.62,3.34,11.46c0.64,2.39,1.09,4.84,1.51,7.28c0.61,3.55-0.94,6.55-4.11,7.51
						c-12,3.64-23.94,4.21-34.24-4.45c-2.31-1.94-4.44-5.71-4.37-8.58c0.41-17.8,0.81-35.65,2.7-53.33
						c0.62-5.82,0.85-10.69-2.45-15.51c3.86-2.98,7.32-1.54,9.44,0.96c1.73,2.04,3.25,5.99,2.42,8.16
						c-4.51,11.73-6.53,23.87-6.84,36.26c-0.2,8.02,0.57,16.1,1.37,24.1c0.17,1.75,1.96,4.07,3.6,4.82
						c6.39,2.9,12.92,2.66,19.3-0.49c4.5-2.22,6.01-5.92,5.8-10.67c-0.1-2.36-0.02-4.73-0.02-7.09
						C138.12,117.75,138.97,117.6,139.82,117.46z"/>
					<path d="M750.65,142.3c2.75,0.8,4.89,1.41,7.03,2.05c5.65,1.7,7.44,0.52,7.38-5.49c-0.07-6.51-0.65-13-0.8-19.51
						c-0.36-15.81-0.52-31.62-0.94-47.42c-0.11-4.29-0.75-8.58-1.36-12.84c-0.38-2.65,0.38-3.52,3-2.73
						c7.54,2.28,9.65,7.76,7.26,15.74c-0.92,3.07-2.04,6.26-2.02,9.39c0.09,17.51,0.42,35.02,0.86,52.52
						c0.1,3.82,1.42,7.65,1.31,11.44c-0.1,3.26-1.08,6.65-2.43,9.65c-0.5,1.12-3.94,2.3-4.67,1.73c-4.81-3.79-9.26-8.05-13.78-12.2
						C751.11,144.28,751.08,143.57,750.65,142.3z"/>
					<path d="M377.98,79.47c3.95,1.22,6.2,3.94,7.24,7.57c1.07,3.73,0.8,7.5-2.13,10.41c-2.18,2.15-4.62,4.07-7.1,5.87
						c-2.48,1.8-3.77,3.9-3.29,7.08c0.66,4.39,1.1,8.82,1.68,13.69c2.4-0.6,4.11-1.03,6.6-1.65c-0.79,2.77-1.39,5.06-2.1,7.32
						c-0.91,2.91-1.63,5.92-2.98,8.62c-0.78,1.57-2.48,3.36-4.04,3.67c-1.15,0.23-3.28-1.49-4.03-2.86
						c-3.35-6.09-2.29-12.6-1.11-19.03c0.6-3.29,1.29-6.56,2.19-11.09c-6.23,2.84-11.34,5.16-16.44,7.48
						c-0.14-0.33-0.28-0.65-0.43-0.98c5.51-5.25,11.24-10.29,16.47-15.8C373.63,94.36,377.96,88.33,377.98,79.47z"/>
					<path d="M430.7,96.65c3.65-1.56,5.36,0.58,6.15,3.45c3.37,12.31,4.95,24.77,3.31,37.58c-1.77,13.81-9.44,17.24-20.46,19.34
						c-3.6,0.69-7.45,0.11-11.19,0.11c-0.11-0.43-0.23-0.85-0.34-1.28c1.35-0.7,2.63-1.59,4.05-2.07
						c10.23-3.46,15.88-11.05,17.9-21.12C432.5,120.82,433.48,108.81,430.7,96.65z"/>
					<path d="M73.23,139.63c5.74-9.1,8.97-18.91,10.72-29.22c-0.42-0.25-0.84-0.49-1.26-0.74c-2.45,3.32-4.94,6.61-7.33,9.97
						c-1.61,2.26-2.87,5.36-6.44,3.4c-3.42-1.89-5.63-4.64-4.01-9.46c3.45,2.39,6.48,1.94,9.41-0.59
						c4.97-4.28,12.18-6.69,11.44-15.4c-0.37-4.3,0.25-8.68,0.26-13.02c0.01-2.5,0.76-5.55-3.27-6.08c-0.17-0.02-0.31-3.4-0.02-3.48
						c2.56-0.65,5.64-1.92,7.74-1.04c2.77,1.17,5.26,3.8,4.63,7.73c-1.25,7.77-2.16,15.6-3.7,23.31
						c-1.54,7.69-3.27,15.39-5.68,22.84C83.87,133.58,80.45,138.55,73.23,139.63z"/>
					<path d="M394.97,90.97c8.87,6.41,15.38-0.15,22.54-1.43c10.64-1.89,21.22-4.14,31.89-5.79c5.08-0.78,9.2,2.18,12.8,5.44
						c0.82,0.74,1.35,2.71,0.94,3.65c-0.42,0.96-2.11,1.72-3.33,1.88c-1.48,0.18-3.07-0.26-4.57-0.62
						c-13.47-3.22-26.43-1.17-39.1,3.73c-2.14,0.83-4.04,2.26-6.17,3.17c-5.92,2.52-12.27,0.51-14.21-4.51
						C395.28,95.23,395.35,93.75,394.97,90.97z"/>
					<path d="M596.73,241.8c2.72,0.81,6.32,1.87,9.91,2.94c0.09,0.43,0.18,0.87,0.27,1.3c-1.28,0.7-2.55,1.97-3.83,1.99
						c-7.21,0.12-10.75,4.69-13.72,10.37c-4.33,8.28-8.78,16.51-13.44,24.62c-1.24,2.16-3.42,3.78-5.82,5.29
						c5.33-11.69,13.01-22.35,14.61-35.43c-2.57-1.73-7.08,1.08-8.2-3.71c3.88-1.38,8.85-1.7,10.97-4.33
						c1.82-2.25,0.38-7.13,0.38-12.06c2.79,0.34,6.14,0.09,8.72,1.38C597.54,234.65,596.73,238.68,596.73,241.8z"/>
					<path d="M698.67,134.86c0.84,2.18,1.43,4.5,2.58,6.49c1.72,2.96,3.36,7.42,5.89,8.11c4.17,1.13,8.62-0.88,11.78-4.74
						c3.57-4.37,6.11-8.95,6.01-15c-8.48,1.04-14.61,8.63-23.41,6.79c0-0.72-0.09-1.23,0.01-1.27c7.19-3.11,14.26-6.59,21.68-8.98
						c1.86-0.6,5.55,1.75,7.14,3.75c1.98,2.49,4.72,5.49,1.62,9.49c-2.02,2.61-5.29,5.04-3.66,9.38c0.15,0.39-2.24,2.44-3.55,2.56
						c-4.93,0.44-9.91,0.37-14.87,0.55c-1.68,0.06-3.56-0.14-4.98,0.53c-4.15,1.97-6.92-0.63-7.73-3.47
						c-1.23-4.34-0.88-9.13-1.2-13.73C696.88,135.16,697.78,135.01,698.67,134.86z"/>
					<path d="M677.4,92.59c1.65-1.41,3.5-2.66,4.93-4.27c7.29-8.24,16.26-15.18,20.49-25.81c0.8-2,0.93-4.26,1.58-7.44
						c2.99-0.73,5.05,2.59,5.88,4.98c1.46,4.22,3.87,4.43,7.46,3.87c4.62-0.73,9.4-1.26,12.63,3.29c0.73,1.03,0.84,2.49,1.23,3.76
						c-1.4,0.32-2.97,1.21-4.17,0.85c-3.08-0.91-6.03-2.31-8.98-3.63c-3.56-1.59-5.87-2.56-8.91,2.17
						c-5.28,8.22-13.81,13.45-22.19,18.41c-2.98,1.76-6.15,3.21-9.23,4.8C677.87,93.23,677.64,92.91,677.4,92.59z"/>
					<path d="M700.5,121.97c5.58-3.51,12-5.55,14.9-9.92c3.03-4.56,2.66-11.36,3.87-17.67c-10.06-0.5-17.06,9.82-27.93,4.31
						c9.32-2.98,17.43-5.9,25.74-8.13c5.06-1.36,7.16,3.1,9.76,6.36c2.06,2.58,0.76,4.37-0.59,6.61c-1.67,2.76-3.06,5.75-4.11,8.79
						c-0.41,1.18,0.77,2.82,0.63,4.19c-0.16,1.54-0.69,4.12-1.57,4.35C714.46,122.63,707.59,122.83,700.5,121.97z"/>
					<path d="M590.49,267.45c6.55-3.14,11.93-5.2,17.97-4.61c1.06,0.1,2.03,1.05,3.05,1.61c-0.69,1.06-1.2,2.84-2.1,3.06
						c-4.22,1.07-4.03,3.63-3.78,7.22c0.23,3.27,1.66,3.79,4.21,4.16c3.04,0.44,6.14,0.87,9.02,1.88c1.4,0.49,2.35,2.27,3.5,3.47
						c-1.59,0.7-3.18,2-4.76,2c-5.56,0-11.11-0.52-16.67-0.7c-2.6-0.09-5.26,0.46-7.8,0.09c-1.53-0.22-2.88-1.66-4.31-2.55
						c1.02-1.07,2.04-2.12,3.05-3.2c1.79-1.93,3.76-3.74,5.21-5.9c0.31-0.47-1.07-2.36-1.98-3.29
						C594.08,269.66,592.72,268.98,590.49,267.45z"/>
					<path d="M886.33,121.47c1.97,1.87,3.5,3.32,5.04,4.77c-2.35,1.12-4.61,2.54-7.07,3.26c-2.35,0.69-4.9,0.81-7.37,0.88
						c-1.49,0.04-3.01-0.51-4.62-1.33c6.09-2.65,8.77-7.38,9.81-13.28c0.52-2.93-0.25-4.48-3.7-3.79c-1.83,0.36-3.78,0.06-6.77,0.06
						c5.45-3.74,9.83-7.03,14.49-9.84c3.23-1.94,9.35,0.07,10.97,3.48c0.51,1.06,0.1,3.14-0.68,4.13c-2.36,3-5.14,5.68-7.69,8.53
						C887.75,119.45,886.93,120.68,886.33,121.47z"/>
					<path d="M312.66,95.79c4.92-0.09,9.99,4.43,10.1,8.98c0.11,4.37-5,9.37-9.74,9.53c-4.89,0.16-10.44-4.65-10.55-9.15
						C302.35,100.36,307.22,95.89,312.66,95.79z"/>
					<path d="M633.17,95.79c5.38-0.09,10.21,4.25,10.19,9.15c-0.02,4.67-5.14,9.37-10.2,9.36c-4.79-0.01-9.68-4.7-9.69-9.29
						C623.46,100.18,628,95.87,633.17,95.79z"/>
					<path d="M112.69,111.71c1.85-0.89,3.71-1.75,5.53-2.67c3.81-1.93,3.96-3.7,1.61-7.26c-1.24-1.88-2.23-4.52-2-6.67
						c0.64-5.86,2-11.65,3.16-17.91c3.94-0.84,5.45,3.29,7.32,5.8c0.81,1.09-0.68,4.36-1.79,6.26c-1.13,1.92-3.15,3.3-4.63,5.05
						c-0.74,0.88-1.74,2.18-1.54,3.04c0.2,0.83,1.71,1.67,2.77,1.91c3.9,0.86,9.03,0.84,9.08,6.06c0.05,5.15-5.4,5.29-9.02,6.43
						c-3.16,1-6.61,1.07-9.93,1.55C113.07,112.76,112.88,112.23,112.69,111.71z"/>
					<path d="M691.32,105.48c6.12,1.35,9.17,6.41,7.18,11.15c-2.66,6.34-5.01,12.93-8.58,18.75c-2.97,4.85-7.42,8.83-11.41,13.01
						c-0.84,0.88-2.51,0.96-4.04,1.03C683.29,135.94,694.11,123.57,691.32,105.48z"/>
					<path d="M407.44,217.57c-1.1,3.12-2.2,6.23-3.51,9.95c2.55,1.78,3.74-0.45,4.68-3.15c3.48,5.78,0.63,11.29-6.46,13.07
						c-0.39-1.56-0.77-3.12-1.34-5.43c-1.53,1.36-2.55,2.26-3.55,3.15c-2.11-6.47-2.11-6.47-11.53-4.47
						c-0.69-1.88-2.52-4.38-1.88-5.63c1.56-3.06,4.26-5.54,7.11-8.98c0.51,4.69,0.88,7.99,1.31,11.9c2.39-0.97,4.63-1.87,7.21-2.92
						c-0.75-1.29-1.49-2.56-2.72-4.67c3.3-1.39,6.48-2.73,9.66-4.07C406.76,216.73,407.1,217.15,407.44,217.57z"/>
					<path d="M936.14,273.22c3.86,3.09,6.69,5.37,9.62,7.72c1.7-1.04,3.7-1.89,5.19-3.3c1.05-0.99,1.38-2.72,2.04-4.12
						c-1.2-0.33-2.38-0.78-3.6-0.97c-1.19-0.19-2.72,0.29-3.54-0.3c-0.61-0.44-0.52-3.08-0.4-3.1c4.32-0.89,8.66-2.01,13.03-2.15
						c2.26-0.07,3.64,2.06,2.56,4.79c-2.35,5.96-5.62,10.72-12.91,10.59c-0.25,0.52-0.48,0.91-0.65,1.33
						c-0.69,1.77-1.37,3.55-2.05,5.33c-2.36-1.51-5.62-2.49-6.85-4.64C937.02,281.65,937.08,277.96,936.14,273.22z"/>
					<path d="M535.92,276.88c3.13-5.71,6.39-11.35,9.37-17.14c3.39-6.6,7.32-12.99,8.48-20.54c0.18-1.18,1.53-3.27,1.78-3.19
						c2.13,0.68,4.29,1.55,6.08,2.85c0.54,0.39,0.37,2.59-0.2,3.52c-5.84,9.54-11.71,19.06-17.83,28.41
						c-1.71,2.61-4.26,4.67-6.43,6.98C536.75,277.48,536.33,277.18,535.92,276.88z"/>
					<path d="M409.19,69.59c8.03-2.86,15.92-5.8,23.91-8.45c3.91-1.3,8.06-1.61,11.5,1.24c0.77,0.64,1.03,3.37,0.42,3.94
						c-5.44,5.02-28.91,7.34-35.44,3.75C409.33,69.93,409.2,69.6,409.19,69.59z"/>
					<path d="M380.84,53.92c4.69,0.74,5.53,4.5,6.52,7.7c1.18,3.8,0.51,7.75-3.07,9.93c-6.91,4.21-14.12,7.94-21.82,11.13
						C370.16,74.1,379.96,67.23,380.84,53.92z"/>
					<path d="M322.64,226.71c-1.47-0.55-2.53-0.96-2.41-0.91c1.29-3.53,2.44-6.69,3.72-10.21c1.44,0.48,3.25,1.08,5.02,1.67
						c-0.91,5.68-0.91,5.68,5.07,7.07c-3.91,1.68,3.92,5.68-2.04,6.8c-0.69,0.13-1.69-1.42-2.73-2.35
						c-5.82,2.57-6.25,3.23-5.71,9.62c1.6-0.22,3.19-0.44,4.77-0.66c0.14,0.33,0.28,0.66,0.42,0.99c-1.73,0.75-3.44,1.91-5.21,2.02
						c-0.65,0.04-1.41-2.43-2.22-3.7c-0.62-0.98-1.39-1.86-2.5-3.3c1.22-0.67,2.7-1.48,4.18-2.29c-0.28-0.4-0.55-0.79-0.83-1.19
						c-2.46,0.44-4.93,0.88-7.39,1.32c-0.13-0.43-0.25-0.86-0.38-1.29C316.93,229.21,319.45,228.1,322.64,226.71z"/>
					<path d="M499.62,217.22c1.2,1.7,2.4,3.41,3.63,5.15c1.28-0.75,2.99-1.75,5.67-3.32c-0.44,2.89-0.67,4.34-0.95,6.2
						c2.25,0.42,4.35,0.81,6.28,1.17c-1.82,2.09-3.46,3.96-5.34,6.12c2.8,1.31,5.03,2.36,7.27,3.4c-0.11,0.45-0.22,0.9-0.33,1.35
						c-1.19-0.11-2.61,0.14-3.54-0.41c-3.51-2.07-6.05-2.01-8.47,1.85c-0.65,1.03-4.19,1.38-5.55,0.59c-2.33-1.36-1.96-3.78,0-5.89
						c2.38,4.25,2.23,4.14,5.06,0.25c1-1.38,2.93-2.09,4.93-3.43c-5.48-3.43-10.35,2.45-15.55-0.28c3.89-1.11,7.79-2.21,11.78-3.35
						C499.13,226.22,498.37,222.38,499.62,217.22z"/>
					<path d="M748.69,89.97c1.27-0.34,2.41-0.64,3.69-0.98c0.11,0.64,0.35,1.13,0.23,1.49c-1.9,5.64-3.8,11.28-5.84,16.86
						c-0.25,0.68-1.52,1.59-2.03,1.44c-1.22-0.37-2.95-1.1-3.23-2.05c-0.64-2.15-0.89-4.57-0.65-6.8
						c0.61-5.45,1.59-10.87,2.48-16.75C747.63,82.77,746.59,87.47,748.69,89.97z"/>
					<path d="M212.48,63.21c2.94-3.45,6.14-2.57,8.8-0.07c2.41,2.26,5.65,4.85,1.38,8.56c-4.29,3.73-8.4,7.67-12.58,11.52
						c-0.58-0.5-1.15-1-1.73-1.5c1.41-2.16,2.62-4.5,4.28-6.45C216.62,70.58,216.71,66.46,212.48,63.21z"/>
					<path d="M814.69,83.34c-0.92-4.24-1.84-8.53-2.82-13.05c4.75,1.32,10.93,0.61,15.7,4.99c2.64,2.42,0.85,3.9-1.41,4.68
						C822.03,81.37,817.77,82.45,814.69,83.34z"/>
					<path d="M553.05,268.72c4-0.06,6.76,1.63,6.68,5.41c-0.11,5.52-0.94,11.05-1.83,16.52c-0.13,0.78-2.89,2.06-3.41,1.68
						c-1.47-1.06-3.69-3.77-3.36-4.22C555.48,282.04,553.33,275.41,553.05,268.72z"/>
					<path d="M857.19,110.03c5.19,1.24,8.22,3.56,8.6,8.11c0.29,3.51,0.1,7.09-0.2,10.61c-0.08,0.95-1.18,2.03-2.09,2.6
						c-0.39,0.25-1.86-0.43-2.22-1.04C857.66,124.14,857.82,117.3,857.19,110.03z"/>
					<path d="M356.41,219.71c1.26,1.72,3.61,3.45,3.58,5.15c-0.08,5.15-1.08,10.28-2.69,15.75c-0.38-1.16-0.93-2.3-1.1-3.49
						c-0.19-1.33,0.24-2.81-0.15-4.05c-0.32-1.01-1.41-1.82-2.28-2.58c-0.12-0.11-1.38,0.74-1.34,0.85c0.39,1.03,0.96,2,1.75,3.53
						c-2.37,0.68-4.81,1.38-6.33,1.82c0.74-2.71,1.67-4.96,1.91-7.28c0.34-3.21,0.11-6.38,4.91-6.07c0.54,0.03,1.24-2.44,1.86-3.75
						L356.41,219.71z"/>
					<path d="M488.89,100.69c2.33,1.08,4.71,1.42,5.72,2.79c2.91,3.96,5.72,8.13,7.68,12.61c1.09,2.51-1.39,4.01-3.46,2.19
						c-2.4-2.12-4.31-4.95-5.93-7.76C491.41,107.93,490.59,104.96,488.89,100.69z"/>
					<path d="M708.66,88.34c-0.26-5.87-5.27-0.9-7.22-4.82c6.29-2.17,12.45-4.38,18.7-6.33c0.75-0.23,1.95,0.95,2.93,1.48
						c-0.54,0.87-0.87,2.08-1.64,2.54C717.35,83.63,713.15,85.86,708.66,88.34z"/>
					<path d="M252.9,63.49c7.48-1.59,12.81,0.16,15.22,4.61c0.53,0.98,0.93,2.57,0.48,3.36c-0.38,0.67-2.07,0.71-3.21,0.81
						C258.95,72.85,256.92,67.42,252.9,63.49z"/>
					<path d="M177.55,101.36c1.62,5.39,3.4,10.74,4.72,16.2c0.3,1.23-1.01,2.85-1.58,4.3c-1.42-0.91-3.62-1.52-4.11-2.79
						c-2.21-5.73-1.59-11.64-0.76-17.48C176.4,101.51,176.98,101.44,177.55,101.36z"/>
					<path d="M192.29,67c6.37,0.7,8.11,5.18,9.76,9.08c0.66,1.57-1.13,4.16-1.9,6.58C192.75,79.04,193.8,72.86,192.29,67z"/>
					<path d="M68.94,85.96c3.73,1.22,7.17,2.04,10.3,3.51c1.2,0.56,2.03,2.55,2.31,4.02c0.09,0.46-2.1,1.62-3.38,2.02
						c-2.29,0.72-4.69,1.11-6.99,1.63C70.47,93.56,69.79,90.15,68.94,85.96z"/>
					<path d="M174.54,74.8c3.35,1.48,6.66,2.94,10.65,4.7c-0.22,1.77-0.46,5.01-1.14,8.15c-0.12,0.55-2.84,1.28-3.09,0.95
						c-1.89-2.46-3.7-5.04-5.04-7.82C175.02,78.96,174.95,76.73,174.54,74.8z"/>
					<path d="M455.51,233.67c0.65-2.25,5.35-3.79,0.61-7.22c3.23-1.35,5.95-2.48,8.72-3.63c-0.46,5.55-0.86,10.44-1.23,14.92
						C460.81,236.34,458.28,235.06,455.51,233.67z"/>
					<path d="M430.62,236.3c2.45-1.98,4.89-3.96,7.52-6.09c-1.39-0.39-2.89-0.81-4.86-1.37c6.22-2.11,6.53-1.69,8.35,3.46
						c0.76,2.14,3.22,3.67,5.57,6.18c-5.51-0.56-10.18-1.03-14.85-1.51C431.78,236.74,431.2,236.52,430.62,236.3z"/>
					<path d="M375.1,235.33c-4.22-1.43-7.48-2.53-11.74-3.97c3.94-2.52,7.6-4.27,3.16-9.17c2.31,0.17,4.32-0.25,5.27,0.56
						c0.78,0.67,0.18,2.82,0.43,4.28c0.28,1.6,0.77,3.17,1.28,4.72C373.79,232.68,374.28,233.54,375.1,235.33z"/>
					<path d="M701.64,103.97c3.47,0.46,6.71,0.63,9.78,1.42c1.1,0.28,2.15,1.96,2.53,3.21c0.14,0.46-1.64,1.88-2.74,2.23
						c-2.17,0.67-4.48,0.9-5.98,1.17C704.06,109.38,702.99,106.98,701.64,103.97z"/>
					<path d="M294.32,230.63c-3.33-1.36-6.66-2.72-9.94-4.05c1.17-0.65,3.53-1.19,4.14-2.52c0.66-1.44-0.29-3.63-0.7-6.65
						c2.93,2.15,5.21,3.82,6.96,5.1c-0.19,2.82-0.38,5.52-0.57,8.23L294.32,230.63z"/>
					<path d="M473.91,229.64c-0.89-0.74-1.92-1.59-2.44-2.01c0.96-3.22,1.83-6.14,2.69-9.06c1.51,2.35,3.02,4.7,4.78,7.44
						C477.73,226.89,475.86,228.23,473.91,229.64z"/>
					<path d="M467.17,236.71c5.34-4.17,10.86-4.64,16.16-1.54C477.29,235.74,472.23,236.22,467.17,236.71z"/>
					<path d="M986.52,232.73c3.29,1.57,5.67,2.58,7.89,3.86c0.55,0.32,1.05,1.68,0.8,2.2c-0.27,0.57-1.46,1.04-2.2,0.97
						C989.6,239.44,987.69,237.4,986.52,232.73z"/>
					<path d="M294.21,230.74c2.64,1.57,5.34,3.06,7.9,4.76c1.02,0.68,1.75,1.8,2.61,2.72c-1.35,0.23-3.1,1.12-3.98,0.59
						c-3.07-1.87-6.64-3.62-6.43-8.17C294.32,230.63,294.21,230.74,294.21,230.74z"/>
					<path d="M871.67,270.68c-2.74-0.54-5.48-1.08-8.22-1.62c3.89-3.73,6.59-3.29,8.62,0.04
						C871.94,269.62,871.81,270.15,871.67,270.68z"/>
					<path d="M338.22,239.43c-3.34-1.45-6.69-2.91-10.03-4.36c0.29-0.67,0.58-1.33,0.87-2c3.43,1.42,6.87,2.84,10.3,4.26
						C338.98,238.03,338.6,238.73,338.22,239.43z"/>
					<path d="M356.54,219.6c-2.19,1.84-4.36,2.97-6.7-0.9c3.54-0.79,6.93-1.55,10.32-2.31c0.13,0.36,0.26,0.73,0.39,1.09
						c-1.38,0.74-2.76,1.48-4.14,2.22C356.41,219.71,356.54,219.6,356.54,219.6z"/>
					<path d="M423.3,232.44c0.1,1.85,0.26,3.7,0.19,5.54c-0.01,0.16-1.52,0.26-2.33,0.39c-0.11-1.89-0.23-3.78-0.34-5.66
						C421.65,232.62,422.48,232.53,423.3,232.44z"/>
					<path d="M277.04,226.37c0.54-1.24,0.91-2.6,1.67-3.69c0.55-0.79,1.56-1.34,2.47-1.77c0.24-0.11,1.32,0.76,1.26,0.96
						c-0.28,0.93-0.64,1.97-1.31,2.62c-0.97,0.95-2.24,1.59-3.38,2.37C277.52,226.7,277.28,226.54,277.04,226.37z"/>
					<path class="st2" d="M211.09,101.7c-3.84-0.86-6.83-1.46-9.78-2.23c-1.13-0.3-2.16-1-3.24-1.52c0.58-1.15,0.88-2.92,1.78-3.32
						c3.49-1.56,7.12-2.86,10.8-3.92c2.54-0.73,4.07,0.69,3.38,3.25C213.23,96.93,211.85,99.75,211.09,101.7z"/>
					<path class="st2" d="M207.59,105.99c-1.81,3.85-3.48,7.94-9.52,7.48C199.35,108.36,204.32,108.16,207.59,105.99z"/>
					<path class="st2" d="M522.28,94.3c3.46-2.37,7.35-4.19,11.63-3.38c1.35,0.25,3.32,3.47,3.06,4.99
						c-1.42,8.15-5.07,16.34-17.84,17.16c1.91-2.59,2.93-4.61,4.52-5.96c1.85-1.57,4.4-2.3,6.25-3.86c1.26-1.06,2.85-3.34,2.45-4.34
						c-0.56-1.42-2.7-2.56-4.4-3.1c-1.62-0.52-3.54-0.11-5.33-0.11C522.51,95.23,522.39,94.76,522.28,94.3z"/>
					<path class="st2" d="M50.9,124.71c-1.08,5.79-2.17,11.58-3.25,17.37c-8.28-1.43-9.89-5.48-4.93-11.36
						c2.01-2.38,4.2-4.6,6.31-6.89C49.65,124.13,50.27,124.42,50.9,124.71z"/>
					<path class="st2" d="M952.96,257.47c0.08-6.9,4.81-6.76,8.4-8.34c0.91,1.23,1.72,2.33,3.3,4.46
						C960.68,254.91,957.18,256.07,952.96,257.47z"/>
				</g>
			</g>
		</g>
	</g>
</g>

</svg>
